<?xml version="1.0" encoding="UTF-8"?>
<svg preserveAspectRatio="xMidYMid slice" xmlns="http://www.w3.org/2000/svg" xmlns:xlink="http://www.w3.org/1999/xlink" width="68px" height="68px" viewBox="0 0 40 40" version="1.1">
  <title>Icons/export/product/environmental_operating_conditions</title>
  <g id="Icons/export/product/environmental_operating_conditions" stroke="none" stroke-width="1" fill="none" fill-rule="evenodd">
    <path d="M22.2344253,29.6297993 C22.2344253,29.9423036 22.2175332,30.254808 22.1837489,30.5673123 C22.1837489,30.5842044 22.1668568,30.7784639 22.1753029,30.6264348 C22.192195,30.4659595 22.1668568,30.7108954 22.1584107,30.7446796 C22.1330726,30.9136009 22.0992883,31.0825222 22.065504,31.2514434 C22.0063816,31.5301635 21.930367,31.8004375 21.8459064,32.0707116 C21.8036761,32.2142946 21.7529997,32.3578777 21.6938773,32.4930147 C21.6769851,32.5436911 21.651647,32.5943675 21.6347548,32.6534899 C21.5080639,32.9913325 21.7445536,32.4338923 21.5840784,32.7632887 C21.3306965,33.2784986 21.0604225,33.7768163 20.72258,34.2497959 C20.6803497,34.3089183 20.6381194,34.3680408 20.595889,34.4271632 C20.4776442,34.5876384 20.7141339,34.2835801 20.587443,34.4356093 C20.5029824,34.536962 20.4269678,34.6383148 20.3425072,34.7312215 C20.1398016,34.9677112 19.920204,35.1873089 19.6921603,35.4069065 C19.5992536,35.4913672 19.4979008,35.5842739 19.4049941,35.6602884 C19.3627638,35.7025187 19.0249213,35.9643467 19.2276268,35.8038715 C18.9742449,35.9896849 18.720863,36.1670522 18.450589,36.3275274 C18.2140992,36.4711105 17.9691634,36.6062475 17.7157815,36.7244924 C17.648213,36.7582766 17.2765862,36.9187518 17.513076,36.8258452 C17.377939,36.8849676 17.2343559,36.935644 17.0907728,36.9863204 C16.5164405,37.1890259 15.9252161,37.341055 15.3255456,37.4170696 C15.5958196,37.3832853 15.1481783,37.4339617 15.0806098,37.4339617 C14.9454728,37.4424078 14.8103357,37.4508538 14.6667527,37.4592999 C14.3289101,37.467746 13.9995137,37.4592999 13.6616711,37.4339617 C13.5856566,37.4255156 13.509642,37.4170696 13.4251814,37.4170696 C13.4082892,37.4170696 13.2140298,37.4001775 13.3660589,37.4086235 C13.5265341,37.4255156 13.2815983,37.4001775 13.247814,37.3917314 C13.1717995,37.3832853 13.0957849,37.3663932 13.0197703,37.3495011 C12.7241581,37.2903786 12.4285459,37.2228101 12.1329337,37.1383495 C11.8626597,37.0623349 11.6008317,36.9609822 11.3305577,36.8596294 C11.102514,36.7751688 11.2798813,36.8342912 11.3221116,36.8596294 C11.2545431,36.8258452 11.1869746,36.800507 11.1194061,36.7667227 C10.967377,36.6991542 10.8153478,36.6231396 10.6717648,36.538679 C10.4268289,36.403542 10.1903392,36.2599589 9.96229546,36.1079298 C9.83560451,36.0234691 9.71735962,35.9390085 9.59911474,35.8545479 C9.56533048,35.8292097 9.41330135,35.7025187 9.59066867,35.8545479 C9.51465411,35.7954254 9.4470856,35.736303 9.37951709,35.6771806 C8.94032181,35.3055538 8.5518029,34.8916967 8.18017612,34.4609475 C8.02814698,34.2751341 8.14639186,34.4187171 8.17173005,34.4609475 C8.12949974,34.401825 8.08726942,34.3427026 8.03659304,34.2835801 C7.95213241,34.1653352 7.86767178,34.0386443 7.78321115,33.9203994 C7.62273594,33.6754636 7.47070681,33.4136356 7.33556979,33.1518077 C7.26800129,33.0166706 7.20887885,32.8815336 7.14131034,32.7548427 C7.12441821,32.7126124 7.04840365,32.535245 7.13286428,32.7463966 C7.10752609,32.6957202 7.09063396,32.6450439 7.07374184,32.5943675 C6.96394301,32.2987553 6.85414419,31.994697 6.76968356,31.6821927 C6.69366899,31.4034726 6.63454655,31.1247525 6.58387017,30.8460324 C6.56697804,30.7700178 6.53319379,30.4321753 6.55853198,30.6686651 C6.54163985,30.4744056 6.51630166,30.2801462 6.5078556,30.0858867 C6.49096347,29.7987206 6.49096347,29.5115544 6.5078556,29.2328343 C6.51630166,29.0639131 6.52474773,28.8949918 6.54163985,28.7260705 C6.55008592,28.6416099 6.55853198,28.5571493 6.56697804,28.4811347 C6.54163985,28.6669481 6.57542411,28.4642426 6.58387017,28.388228 C6.64299261,28.0250473 6.72745324,27.6703126 6.83725206,27.315578 C6.88792844,27.1382106 6.94705089,26.9692894 7.01461939,26.8003681 C7.03995758,26.7243535 7.07374184,26.648339 7.09908002,26.5723244 C7.04840365,26.6990154 7.07374184,26.6230008 7.11597215,26.5385402 C7.26800129,26.2091437 7.42847649,25.8881933 7.61428988,25.584135 C7.70719658,25.4321059 7.80010327,25.2800767 7.90145603,25.1280476 C7.94368635,25.0604791 7.99436273,25.0013566 8.03659304,24.9337881 C8.07882336,24.8746657 8.19706824,24.7141905 8.08726942,24.8577736 C8.52646471,24.3003334 9.0332285,23.7851235 9.59911474,23.3543743 C9.43863954,23.4810653 9.75958994,23.2445755 9.81871238,23.2023452 C9.96229546,23.1009924 10.1143246,23.0080857 10.2663537,22.915179 C10.5873041,22.7209196 10.9251467,22.5435523 11.2714353,22.3915231 C11.6684002,22.2141558 11.8964439,21.707392 11.8964439,21.2935349 C11.8964439,18.9962057 11.8964439,16.6988765 11.8964439,14.4015473 C11.8964439,11.4369791 11.8964439,8.47241093 11.8964439,5.49939667 C11.8964439,5.27135297 11.8879979,5.0348632 11.90489,4.80681949 C11.90489,4.77303524 11.9217821,4.5280994 11.90489,4.68857461 C11.8879979,4.84904981 11.9217821,4.61256004 11.9302282,4.57032972 C11.9640124,4.41830058 11.9977967,4.27471751 12.0484731,4.13113443 C12.0569191,4.09735018 12.1413798,3.87775254 12.0822573,4.02133561 C12.0231349,4.15647262 12.0991495,3.98755136 12.1075955,3.97065923 C12.2005022,3.81018403 12.2849628,3.64970883 12.3863156,3.49767969 C12.4116538,3.45544938 12.5383447,3.32031236 12.3863156,3.48923363 C12.436992,3.43011119 12.4792223,3.37943481 12.5298987,3.32875843 C12.6143593,3.23585173 12.7157121,3.1513911 12.8086188,3.0584844 C12.9437558,2.92334739 12.6565896,3.15983716 12.8086188,3.05003834 C12.8677412,3.00780803 12.9268636,2.96557771 12.9944322,2.92334739 C13.1380152,2.8304407 13.2815983,2.75442613 13.4336274,2.68685762 C13.1971377,2.79665644 13.6025487,2.63618124 13.6532251,2.61928912 C13.7968082,2.5770588 13.9488373,2.54327455 14.1008664,2.51793636 C13.8390385,2.56016667 14.2782338,2.51793636 14.3458023,2.51793636 C14.4133708,2.51793636 14.4893853,2.51793636 14.5569538,2.52638242 C14.6160763,2.52638242 14.8610121,2.56861274 14.7005369,2.53482849 C14.8779042,2.56861274 15.0468255,2.61928912 15.2157468,2.6699655 C15.4522365,2.737534 15.3424377,2.71219581 15.2833153,2.68685762 C15.3593299,2.72064188 15.4437905,2.76287219 15.5198051,2.80510251 C15.8576476,2.9909159 15.9252161,3.04159228 16.2292744,3.37943481 C16.2461665,3.39632693 16.4066417,3.60747851 16.3390732,3.50612576 C16.2630586,3.404773 16.4150878,3.62437064 16.4235338,3.64126277 C16.5079945,3.76795371 16.584009,3.90309073 16.6431315,4.0466738 C16.575563,3.8861986 16.6600236,4.08890412 16.6600236,4.11424231 C16.6853618,4.19870294 16.7107,4.28316357 16.7360382,4.3676242 C16.7613763,4.45208484 16.7782685,4.54499153 16.7951606,4.62945216 C16.7613763,4.45208484 16.8036067,4.73080492 16.8036067,4.77303524 C16.8120527,4.88283406 16.8120527,4.99263288 16.8120527,5.11087777 C16.8204988,7.77138768 16.8120527,10.4403437 16.8120527,13.1008536 C16.8120527,15.7867017 16.7698224,18.4725498 16.8120527,21.1583979 C16.8120527,21.2090743 16.8120527,21.2513046 16.8120527,21.301981 C16.8120527,21.7158381 17.0485425,22.2141558 17.4370614,22.3999692 C17.8171342,22.5773365 18.188761,22.771596 18.5434957,22.9911936 C18.712417,23.0925464 18.8728922,23.2107912 19.0333674,23.3205901 C19.1009359,23.3628204 19.2445189,23.4810653 19.1093819,23.3712664 C19.2022886,23.447281 19.2951953,23.5232956 19.3796559,23.5993102 C19.6752682,23.852692 19.9624343,24.1314121 20.2242623,24.4270243 C20.3593993,24.5706074 20.4860902,24.7226366 20.6043351,24.8831118 C20.452306,24.6888523 20.6803497,24.9929106 20.6887957,25.0098027 C20.7479182,25.0942633 20.7985946,25.1702779 20.857717,25.2547385 C21.0773147,25.584135 21.2715741,25.9304236 21.4489414,26.2936043 C21.4911717,26.386511 21.5334021,26.4709716 21.5756324,26.5638783 C21.4742796,26.3442807 21.6263088,26.6905693 21.6347548,26.7074614 C21.7107694,26.8932748 21.7698918,27.0875343 21.8290143,27.2817937 C21.9472592,27.6703126 22.0401659,28.0672776 22.1077344,28.4726886 C22.1753029,28.8612075 22.0908422,28.2277528 22.1330726,28.6247178 C22.1415186,28.7260705 22.1499647,28.8358693 22.1584107,28.9372221 C22.2259792,29.1652658 22.2344253,29.3933095 22.2344253,29.6297993 C22.2428714,30.2885922 22.8172037,30.930493 23.5013348,30.8967088 C24.1854659,30.8629245 24.7766903,30.3392686 24.7683337,29.6297993 C24.7429061,25.6432575 22.4117926,21.8932054 18.7715394,20.2208849 C18.982691,20.5840656 19.1938426,20.9472463 19.3965481,21.3188731 C19.3965481,18.8948529 19.3965481,16.4708328 19.3965481,14.0383666 C19.3965481,11.1075827 19.3965481,8.17679872 19.3965481,5.24601478 C19.3965481,4.54499153 19.3205335,3.85241435 19.0587055,3.20206748 C18.3661284,1.46217846 16.8120527,0.262837479 14.9539188,0.0347937722 C12.0062428,-0.319940883 9.4470856,2.08718713 9.40485528,5.00107894 C9.37107103,7.54334397 9.40485528,10.0940551 9.40485528,12.6363201 C9.40485528,15.4657513 9.33728678,18.3120746 9.40485528,21.1499518 C9.40485528,21.2006282 9.40485528,21.2513046 9.40485528,21.301981 C9.61600686,20.9388002 9.82715844,20.5756195 10.029864,20.2039927 C7.29333948,21.445564 5.19026974,23.9371527 4.37944767,26.8257063 C3.58551773,29.6466914 4.0500512,32.8055191 5.65480321,35.2633235 C7.19198672,37.602883 9.64979112,39.3258799 12.4116538,39.8241976 C15.249531,40.3394075 18.2309913,39.7228448 20.5452127,37.9660637 C23.1719383,35.9812388 24.73446,32.9237639 24.7513522,29.6297993 C24.7597982,28.9710064 24.1685738,28.3291056 23.4844427,28.3628898 C22.8172037,28.388228 22.2428714,28.92033 22.2344253,29.6297993 Z" id="Path" fill="#27BCBC" fill-rule="nonzero"></path>
    <path d="M16.3813035,29.4186477 C16.3813035,29.4946623 16.313735,29.9085194 16.3728574,29.6551375 C16.3390732,29.7818284 16.313735,29.9085194 16.2799507,30.0352103 C16.2715047,30.0689946 16.1954901,30.2885922 16.2461665,30.1450091 C16.2968429,30.0014261 16.2123822,30.2125777 16.1954901,30.2463619 C16.1279216,30.3730529 16.051907,30.4997438 15.9758925,30.6264348 C15.8745397,30.78691 16.1025834,30.4912977 15.9758925,30.6264348 C15.9252161,30.6771111 15.8829858,30.7362336 15.8323094,30.78691 C15.7478488,30.8798166 15.6549421,30.9642773 15.5535893,31.0487379 C15.7562948,30.8882627 15.4100062,31.1331985 15.3593299,31.1585367 C15.2748692,31.2092131 14.9370267,31.3359041 15.1650704,31.2598895 C15.0214873,31.3105659 14.8779042,31.3443501 14.7343212,31.3865804 C14.6836448,31.4034726 14.4893853,31.4203647 14.7343212,31.3950265 C14.6583066,31.4034726 14.582292,31.4119186 14.5062775,31.4119186 C14.3711405,31.4203647 14.2360034,31.4034726 14.1008664,31.4034726 C13.906607,31.3950265 14.2866798,31.4457029 14.1008664,31.4034726 C14.0079597,31.3781344 13.915053,31.3612423 13.8305924,31.3359041 C13.779916,31.3190119 13.7207936,31.3021198 13.6701172,31.2852277 C13.4843038,31.2345513 13.8390385,31.3696883 13.6616711,31.2852277 C13.5434263,31.2345513 13.4336274,31.1754289 13.3238286,31.1078604 C13.2647062,31.06563 13.2055837,31.0318458 13.1380152,30.9896155 C13.3238286,31.1163064 13.1802455,31.0233997 13.1380152,30.9811694 C13.0197703,30.8629245 12.9015255,30.7531257 12.7917266,30.6348808 C12.6988199,30.525082 12.8086188,30.660219 12.8255109,30.6771111 C12.7832806,30.6179887 12.7410503,30.5588662 12.707266,30.4912977 C12.6312514,30.3646068 12.5636829,30.2379158 12.5045605,30.1027788 C12.5974672,30.3308225 12.4876684,30.0098721 12.4623302,29.9338576 C12.445438,29.857843 12.4285459,29.7902745 12.4116538,29.7142599 C12.3778695,29.5706768 12.4116538,29.9000733 12.4032077,29.6551375 C12.4032077,29.5200005 12.3947617,29.3848635 12.4032077,29.2497264 C12.4032077,29.2074961 12.436992,28.9710064 12.4116538,29.1314816 C12.3863156,29.2919568 12.4285459,29.055467 12.436992,29.0216827 C12.4707762,28.8949918 12.5045605,28.7683008 12.5467908,28.650056 C12.4792223,28.8612075 12.5214526,28.7007323 12.5467908,28.650056 C12.5890211,28.5655953 12.6312514,28.4895808 12.6734817,28.4051201 C12.7157121,28.3375516 12.9015255,28.0757237 12.7579424,28.261537 C12.8508491,28.1517382 12.9522018,28.0419394 13.0535546,27.9405866 C13.104231,27.8899103 13.1633534,27.8392339 13.2140298,27.7970036 C13.1717995,27.8307878 13.0282164,27.9152485 13.2224759,27.7970036 C13.3491668,27.720989 13.4758578,27.6449744 13.6025487,27.5774059 C13.8137003,27.4676071 13.6532251,27.5605138 13.6025487,27.5774059 C13.6701172,27.5520677 13.7461318,27.5267295 13.8137003,27.5098374 C13.8728227,27.4929453 14.2106653,27.4169307 14.0839743,27.4422689 C13.9657294,27.459161 14.312018,27.4338229 14.3795865,27.4338229 C14.4556011,27.4338229 14.5316157,27.4422689 14.6160763,27.4422689 C14.9708109,27.459161 14.4809393,27.4084847 14.6751987,27.450715 C14.84412,27.4844992 14.9961491,27.5351756 15.1566243,27.585852 C14.9201346,27.5098374 15.3339917,27.6787587 15.4015602,27.720989 C15.4522365,27.7463272 15.4944669,27.7801114 15.5366972,27.8054496 C15.8069712,27.9574788 15.4015602,27.6618666 15.6296039,27.8730181 C15.7309566,27.9743709 15.8323094,28.0757237 15.9336622,28.1770764 C16.0941374,28.3459977 15.9674464,28.2193067 15.9421082,28.1770764 C15.9927846,28.253091 16.043461,28.3291056 16.0941374,28.4051201 C16.1448137,28.4895808 16.2968429,28.8780997 16.2292744,28.650056 C16.2799507,28.793639 16.313735,28.9372221 16.3559653,29.0808052 C16.4150878,29.3088489 16.3728574,29.1399276 16.3644114,29.0808052 C16.3728574,29.1821579 16.3728574,29.3004028 16.3813035,29.4186477 C16.3897496,30.0774406 16.9556358,30.7193414 17.648213,30.6855572 C18.323898,30.6517729 18.9236567,30.128117 18.9151225,29.4186477 C18.8813382,27.4760532 17.6735512,25.7868405 15.8407555,25.1364937 C14.1515428,24.5368232 12.1244876,25.0858173 10.975823,26.4625256 C9.73425175,27.9405866 9.49776198,30.0943328 10.5281817,31.7666533 C11.5332632,33.4051895 13.4336274,34.1906734 15.3086535,33.8528309 C17.4117232,33.4727581 18.8897843,31.5132714 18.9236567,29.4270938 C18.9320146,28.7683008 18.3323441,28.1264 17.656659,28.1601843 C16.9471897,28.1770764 16.3897496,28.7091784 16.3813035,29.4186477 Z" id="Path" fill="#27BCBC" fill-rule="nonzero"></path>
    <path d="M22.2851017,8.2950436 C24.1263435,8.2950436 25.9675853,8.2950436 27.808827,8.2950436 C28.46762,8.2950436 29.1095208,7.71226524 29.0757365,7.02813412 C29.0419523,6.344003 28.5182963,5.76122463 27.808827,5.76122463 C25.9675853,5.76122463 24.1263435,5.76122463 22.2851017,5.76122463 C21.6263088,5.76122463 20.984408,6.344003 21.0181922,7.02813412 C21.0519765,7.7207113 21.5756324,8.2950436 22.2851017,8.2950436 L22.2851017,8.2950436 Z" id="Path" fill="#27BCBC" fill-rule="nonzero"></path>
    <path d="M22.4033466,11.9099587 C23.4928887,11.9099587 24.5824309,11.9099587 25.671973,11.9099587 C26.330766,11.9099587 26.9726668,11.3271803 26.9388825,10.6430492 C26.9050983,9.95891805 26.3814424,9.37613969 25.671973,9.37613969 C24.5824309,9.37613969 23.4928887,9.37613969 22.4033466,9.37613969 C21.7445536,9.37613969 21.1026528,9.95891805 21.1364371,10.6430492 C21.1617753,11.3271803 21.6938773,11.9099587 22.4033466,11.9099587 L22.4033466,11.9099587 Z" id="Path" fill="#27BCBC" fill-rule="nonzero"></path>
  </g>
</svg>
