<?xml version="1.0" encoding="UTF-8"?>
<svg preserveAspectRatio="xMidYMid slice" xmlns="http://www.w3.org/2000/svg" xmlns:xlink="http://www.w3.org/1999/xlink" width="34px" height="34px" viewBox="0 0 20 20" version="1.1">
  <title>Icons/third_party/twitter</title>
  <g id="Icons/third_party/twitter" stroke="none" stroke-width="1" fill="none" fill-rule="evenodd">
    <path d="M19.6006171,3.88558286 C18.8795086,4.20546514 18.1044011,4.42156229 17.291072,4.51878171 C18.1212583,4.02112 18.7589646,3.23307657 19.0591486,2.29401029 C18.2820811,2.75491886 17.4215143,3.08950171 16.5054789,3.26982857 C15.7720217,2.48825257 14.7269154,2 13.5702811,2 C11.349528,2 9.54891429,3.80041714 9.54891429,6.02117143 C9.54891429,6.33634971 9.58448914,6.643296 9.65309143,6.9376 C6.310984,6.76991657 3.34795429,5.16893486 1.36456457,2.73600457 C1.01841714,3.329904 0.820058286,4.02063086 0.820058286,4.757616 C0.820058286,6.15278971 1.52999429,7.38361257 2.60900914,8.10472 C1.94984,8.08384571 1.32977371,7.90293143 0.787619429,7.601768 C0.787162286,7.61852571 0.787162286,7.63538171 0.787162286,7.65233714 C0.787162286,9.60064229 2.17332114,11.2258297 4.01293943,11.5954983 C3.67551429,11.6874251 3.32025257,11.7365246 2.95352343,11.7365246 C2.69440343,11.7365246 2.442536,11.71124 2.19693943,11.6643943 C2.708712,13.2619451 4.19375543,14.4245577 5.95350171,14.4568983 C4.57724229,15.5355223 2.84336914,16.178424 0.959256,16.178424 C0.634668571,16.178424 0.314590857,16.1593131 -9.09494702e-13,16.1221691 C1.77964114,17.2632217 3.89337486,17.9289577 6.16430629,17.9289577 C13.5609051,17.9289577 17.6057931,11.8015017 17.6057931,6.48737257 C17.6057931,6.31302514 17.6018731,6.13965714 17.5941314,5.96707429 C18.3797246,5.40022286 19.0614354,4.69205029 19.6006171,3.88558286 L19.6006171,3.88558286 Z" id="Mask" fill="#EEEEF2" fill-rule="nonzero"></path>
  </g>
</svg>
