<?xml version="1.0" encoding="UTF-8"?>
<svg preserveAspectRatio="xMidYMid slice" xmlns="http://www.w3.org/2000/svg" xmlns:xlink="http://www.w3.org/1999/xlink" width="68px" height="68px" viewBox="0 0 24 24" version="1.1">
  <title>Icons/export/solutions/pharma</title>
  <g id="Icons/export/solutions/pharma" stroke="none" stroke-width="1" fill="none" fill-rule="evenodd">
    <path d="M12.342922,18.3744681 C12.2589504,18.3744681 12.1772482,18.3591489 12.1000851,18.3285106 C11.8215035,18.2184397 11.622922,17.924539 11.6172482,17.613617 L11.6172482,16.5106383 L10.5108652,16.5106383 C10.2742695,16.5055319 10.0422128,16.3687943 9.89299291,16.1446809 C9.75001418,15.9296454 9.7142695,15.6743262 9.79880851,15.4615603 C9.90887943,15.1835461 10.2033475,14.9849645 10.5137021,14.9787234 L11.6172482,14.9787234 L11.6172482,13.8723404 C11.6200851,13.7407092 11.6297305,13.7089362 11.6552624,13.6329078 C11.7573901,13.3236879 12.063773,13.1075177 12.4013617,13.1075177 C12.8427801,13.1409929 13.1406525,13.4570213 13.1491631,13.8757447 L13.1491631,14.9787234 L14.2555461,14.9787234 C14.6356879,15.0008511 14.8876028,15.3304965 14.9545532,15.6448227 C14.9806525,15.7719149 15.0351206,16.2031206 14.6067518,16.4243972 C14.525617,16.4669504 14.4354043,16.4947518 14.3463262,16.5055319 C14.3156879,16.5095035 14.2844823,16.5100709 14.2527092,16.5106383 L13.1491631,16.5106383 L13.1491631,17.6170213 C13.1412199,18.0119149 12.756539,18.3744681 12.342922,18.3744681 L12.342922,18.3744681 Z M9.40448227,3.74468085 L15.3613617,3.74468085 L15.3613617,1.53248227 L9.40448227,1.53248227 L9.40448227,3.74468085 Z M10.5108652,24 C10.4450496,23.9977305 10.4268936,23.9971631 10.3758298,23.9886525 C10.0972482,23.9392908 9.86008511,23.6692199 9.80107801,23.3321986 C9.74320567,23.0065248 9.86575887,22.7217021 10.1278865,22.5707801 C10.2413617,22.5043972 10.2890213,22.4771631 10.5176738,22.4680851 L14.2634894,22.4737589 C14.889305,22.4737589 15.5156879,22.4726241 16.1409362,22.4680851 C16.7241986,22.4567376 17.2240567,21.9568794 17.2337021,21.3764539 C17.254695,18.0085106 17.2450496,14.7024113 17.2337021,12.1985816 C17.2217872,11.2221277 16.6407943,10.32 15.7188085,9.84283688 L15.6558298,9.80879433 C14.3457589,9.08822695 13.4958298,7.65673759 13.4895887,6.16340426 L13.4895887,5.27659574 L11.2768227,5.27659574 L11.2768227,6.16397163 C11.2688794,7.70156028 10.352,9.16765957 8.94036879,9.89787234 C8.08817021,10.347234 7.5355461,11.2595745 7.53214184,12.2224113 L7.53214184,23.2340426 C7.52192908,23.4570213 7.49469504,23.5041135 7.42944681,23.6164539 C7.30178723,23.8377305 7.03398582,23.9807092 6.74689362,23.9807092 C6.54207092,23.9807092 6.35653901,23.9075177 6.22434043,23.7758865 C6.1142695,23.666383 6.03937589,23.5217021 6.01214184,23.3673759 C6.00249645,23.3151773 6.00249645,23.2964539 6.00079433,23.2510638 L5.99965957,12.2190071 C6.00646809,10.6808511 6.92334752,9.21475177 8.33611348,8.48510638 C9.18831206,8.0351773 9.74093617,7.12340426 9.7449078,6.16113475 L9.7449078,5.27659574 L8.63852482,5.27659574 C8.49724823,5.27262411 8.46660993,5.26241135 8.38547518,5.23404255 C8.11370213,5.13929078 7.90944681,4.88340426 7.87710638,4.59687943 C7.87313475,4.55943262 7.87313475,4.54921986 7.872,4.5151773 L7.872,0.765957447 C7.87653901,0.625248227 7.88675177,0.594609929 7.91512057,0.513475177 C8.00987234,0.241702128 8.26575887,0.0374468085 8.55285106,0.00453900709 C8.58916312,0.000567375887 8.59994326,0.000567375887 8.63625532,0 L16.1278865,0 C16.3100142,0.0130496454 16.3406525,0.0255319149 16.4212199,0.0584397163 C16.6702979,0.161702128 16.8580993,0.411914894 16.889305,0.680283688 L16.8927092,0.738723404 L16.893844,4.5106383 C16.8898723,4.65134752 16.8790922,4.68198582 16.8507234,4.76368794 C16.7554043,5.03432624 16.4989504,5.23914894 16.2129929,5.27205674 C16.1766809,5.27602837 16.1659007,5.27602837 16.130156,5.27659574 L15.0067518,5.27659574 L15.0044823,5.44453901 C14.9959716,6.12425532 15.019234,6.90269504 15.4129929,7.53929078 C15.6649078,7.94836879 16.0427801,8.2848227 16.5363972,8.54070922 L16.6027801,8.57531915 C17.8963972,9.28794326 18.7463262,10.7052482 18.7661844,12.1849645 C18.774695,14.2235461 18.7718582,16.2632624 18.7690213,18.3035461 L18.7661844,21.364539 C18.7571064,22.7835461 17.5502979,23.9903546 16.1307234,24 L10.5108652,24 Z" id="pharma" fill="#27BCBC"></path>
  </g>
</svg>
