<?xml version="1.0" encoding="UTF-8"?>
<svg preserveAspectRatio="xMidYMid slice" xmlns="http://www.w3.org/2000/svg" xmlns:xlink="http://www.w3.org/1999/xlink" width="68px" height="68px" viewBox="0 0 24 24" version="1.1">
  <title>services</title>
  <g id="services" stroke="none" stroke-width="1" fill="none" fill-rule="evenodd">
    <path d="M19.3635074,23.4 C18.8855017,23.4 18.4606078,23.1882005 18.1419373,22.8705014 L9.69716998,14.3985232 C7.30714149,15.1927711 4.59844253,14.5044229 2.73953148,12.5982278 C0.561949969,10.4802333 -0.0222792178,7.19734171 1.30551439,4.54984852 L1.78352009,3.54380111 L6.2449066,7.9386398 L7.99759417,6.13834443 L3.64243114,1.74350574 L4.65155428,1.26695697 C7.36025323,-0.00383975847 10.6000696,0.578608742 12.6714277,2.69660329 C14.5303387,4.54984852 15.2207914,7.25029157 14.477227,9.73893516 L22.8688826,18.1579635 C23.187553,18.4227128 23.4,18.8463117 23.4,19.3228605 C23.4,19.8523591 23.187553,20.3289079 22.7626591,20.699557 L20.5850776,22.9234512 C20.2664071,23.1882005 19.8415131,23.4 19.3635074,23.4 Z M10.1332586,12.584865 L19.1342494,21.6070404 C19.1865808,21.6591917 19.2912435,21.6591917 19.3435748,21.6070404 L21.5938225,19.3645343 C21.6461538,19.312383 21.6461538,19.2602317 21.6461538,19.2602317 L21.5938225,19.2080804 L12.645163,10.1337537 L12.8544884,9.66439199 C13.6394585,7.68264248 13.1161451,5.44013645 11.5985362,3.92774866 C10.2379213,2.62396609 8.35399301,2.10245306 6.57472739,2.46751218 L10.342584,6.22240599 L6.41773336,10.185905 L2.54521406,6.3788599 C2.02190064,8.20415551 2.5975454,10.1337537 3.95816029,11.4896876 C5.47576921,13.0020754 7.72601691,13.5235884 9.66227656,12.7413189 L10.1332586,12.584865 Z" fill="#000000"></path>
  </g>
</svg>
