<!--?xml version="1.0" encoding="UTF-8"?-->
<svg width="43px" height="40px" viewBox="0 0 43 40" version="1.1" xmlns="http://www.w3.org/2000/svg" xmlns:xlink="http://www.w3.org/1999/xlink" class="js-buy-tiles-icon">
    <title>engage_partner</title>
    <g id="Buy-Page-electron" stroke="none" stroke-width="1" fill="none" fill-rule="evenodd">
        <g id="Icons/buy/engage_partner" transform="translate(2.000000, -0.500000)" stroke="#27BCBC" stroke-width="3">
            <path d="M29.8596457,32.3586287 C31.4036113,31.4630377 33.377868,31.9945247 34.2692809,33.5457406 C35.160682,35.0969634 34.6316815,37.0804998 33.0877227,37.9761026 C31.5437571,38.8716936 29.5695004,38.3402066 28.6780875,36.7889907 C27.7866865,35.237768 28.315687,33.2542315 29.8596457,32.3586287 Z M6.46077265,29.8674714 C7.72141889,28.6009126 9.76531988,28.6009126 11.0259661,29.8674714 C12.2865995,31.1340431 12.2865995,33.1875511 11.0259661,34.4541228 C9.76531988,35.7206817 7.72141889,35.7206817 6.46077265,34.4541228 C5.20013925,33.1875511 5.20013925,31.1340431 6.46077265,29.8674714 Z M21.7777778,10.9994388 C25.9505959,10.9994388 29.3333333,14.3821763 29.3333333,18.5549944 C29.3333333,22.7278125 25.9505959,26.1105499 21.7777778,26.1105499 C17.6049597,26.1105499 14.2222222,22.7278125 14.2222222,18.5549944 C14.2222222,14.3821763 17.6049597,10.9994388 21.7777778,10.9994388 Z M3.11111111,15.4438833 C4.82933033,15.4438833 6.22222222,16.8367752 6.22222222,18.5549944 C6.22222222,20.2732136 4.82933033,21.6661055 3.11111111,21.6661055 C1.39289189,21.6661055 0,20.2732136 0,18.5549944 C0,16.8367752 1.39289189,15.4438833 3.11111111,15.4438833 Z M33.0909929,3.11207969 C34.3516392,1.84552084 36.3955402,1.84552084 37.6561864,3.11207969 C38.9168198,4.37865139 38.9168198,6.43215943 37.6561864,7.69873112 C36.3955402,8.96528997 34.3516392,8.96528997 33.0909929,7.69873112 C31.8303596,6.43215943 31.8303596,4.37865139 33.0909929,3.11207969 Z M6.22222222,18.5549944 L15.1111111,18.5549944 M10.6666667,29.6661055 L17.7777778,24.3327722 M29.7297297,31.8918919 L24.8888889,24.3327722 M32.8888889,7.44388326 L25.7777778,13.6661055" id="engage_partner" class="nEoqmbik_0" data-start="0" data-duration="100"></path>
        </g>
    </g>
<style data-made-with="vivus-instant">.nEoqmbik_0{stroke-dasharray:165 167;stroke-dashoffset:166;}.start .nEoqmbik_0{animation:nEoqmbik_draw 4000ms ease 0ms forwards;}@keyframes nEoqmbik_draw{100%{stroke-dashoffset:0;}}@keyframes nEoqmbik_fade{0%{stroke-opacity:1;}95.1219512195122%{stroke-opacity:1;}100%{stroke-opacity:0;}}</style></svg>