<?xml version="1.0" encoding="UTF-8"?><svg version="1.1" width="16px" height="16px" viewBox="0 0 16.0 16.0" xmlns="http://www.w3.org/2000/svg" xmlns:xlink="http://www.w3.org/1999/xlink"><defs><clipPath id="i0"><path d="M10.0417965,1.59708397 C12.3320114,3.72652926 12.6557074,7.28474905 10.7887291,9.80772034 L6.3172533,15.8385215 C6.24182401,15.9402302 6.12402625,16 5.99900235,16 C5.87397844,16 5.75618069,15.9402302 5.68075139,15.8385215 L1.21127092,9.80772034 C-0.655707361,7.28474905 -0.332011357,3.72652926 1.95820347,1.59708397 C4.2484183,-0.532361322 7.7515817,-0.532361322 10.0417965,1.59708397 Z M6,0.813417544 C4.02618146,0.811270641 2.22148661,1.94974452 1.3416452,3.75209758 C0.461803791,5.55445065 0.658655872,7.7096389 1.84976813,9.31516081 L6,14.9185342 L10.1502319,9.31516081 C11.3413441,7.7096389 11.5381962,5.55445065 10.6583548,3.75209758 C9.77851339,1.94974452 7.97381854,0.811270641 6,0.813417544 Z M6,3.02586771 C7.62541438,3.02586771 8.94307308,4.36998529 8.94307308,6.02803836 C8.94307308,7.68609143 7.62541438,9.03020902 6,9.03020902 C4.37549704,9.02796663 3.05912517,7.68516172 3.05692692,6.02803836 C3.05692692,4.36998529 4.37458562,3.02586771 6,3.02586771 Z M6,3.84001568 C4.8158319,3.84113779 3.85614845,4.8200919 3.85504843,6.02803836 C3.85504843,7.23644992 4.81537596,8.21606105 6,8.21606105 C7.18462404,8.21606105 8.14495157,7.23644992 8.14495157,6.02803836 C8.14495157,4.8196268 7.18462404,3.84001568 6,3.84001568 Z"></path></clipPath></defs><g transform="translate(2.0 0.0)"><g clip-path="url(#i0)"><polygon points="4.4408921e-16,0 12,0 12,16 4.4408921e-16,16 4.4408921e-16,0" stroke="none" fill="#000000"></polygon></g></g></svg>