<svg width="24" height="24" viewBox="0 0 24 24" fill="none" xmlns="http://www.w3.org/2000/svg">
<path fill-rule="evenodd" clip-rule="evenodd" d="M4.36364 1.5H19.6364C21.2179 1.5 22.5 2.78209 22.5 4.36364V19.6364C22.5 21.2179 21.2179 22.5 19.6364 22.5H4.36364C2.78209 22.5 1.5 21.2179 1.5 19.6364V4.36364C1.5 2.78209 2.78209 1.5 4.36364 1.5ZM19.6364 3.40909H4.36364C3.83646 3.40909 3.40909 3.83646 3.40909 4.36364V19.6364C3.40909 20.1635 3.83646 20.5909 4.36364 20.5909H19.6364C20.1635 20.5909 20.5909 20.1635 20.5909 19.6364V4.36364C20.5909 3.83646 20.1635 3.40909 19.6364 3.40909ZM14.386 16.0344V16.0378L14.2843 16.0385C13.5698 16.0388 12.8879 15.7285 12.4048 15.183C12.3577 15.2361 12.3087 15.2868 12.2577 15.3353L12.2475 15.3451C12.2009 15.3891 12.153 15.4311 12.1037 15.4711C12.0947 15.4785 12.0866 15.486 12.078 15.4923C12.0333 15.5281 11.9868 15.5615 11.9402 15.5938C11.9352 15.5973 11.9304 15.6009 11.9255 15.6044C11.9176 15.6102 11.9097 15.616 11.9014 15.6213C11.847 15.6572 11.7915 15.6913 11.7344 15.7227C11.7301 15.7251 11.7262 15.7281 11.7217 15.7304C11.7134 15.7352 11.7049 15.7395 11.6962 15.7438C11.6919 15.7459 11.6875 15.7481 11.6831 15.7504C11.6784 15.7529 11.6737 15.7553 11.669 15.7578C11.644 15.7709 11.6189 15.784 11.5933 15.7961C11.5695 15.8068 11.5453 15.8174 11.5211 15.8281C11.5015 15.8372 11.481 15.8461 11.4605 15.8546C11.4392 15.8637 11.4176 15.8716 11.3959 15.8796C11.3881 15.8824 11.3802 15.8853 11.3724 15.8883C11.3643 15.8909 11.3564 15.8938 11.3485 15.8968C11.3411 15.8996 11.3336 15.9024 11.3262 15.9049C11.2921 15.9155 11.2578 15.9266 11.2235 15.9368C11.2178 15.9383 11.2122 15.94 11.2065 15.9417C11.2009 15.9434 11.1952 15.9451 11.1896 15.9466C11.1518 15.9572 11.1137 15.9668 11.0752 15.9755L11.0514 15.9808C11.0103 15.9895 10.968 15.9976 10.9269 16.0044L10.9115 16.0068C10.8674 16.014 10.8228 16.0197 10.7778 16.0244H10.77C10.7234 16.0291 10.6766 16.0331 10.6293 16.0344H10.6279V16.0378H10.4225V16.0344H10.4211C10.3743 16.0331 10.327 16.0291 10.28 16.0244H10.2726C10.2276 16.0197 10.1828 16.014 10.1385 16.0068L10.1237 16.0044C10.0812 15.9976 10.0401 15.9895 9.99904 15.9808L9.97542 15.9755C9.93702 15.9678 9.89861 15.9572 9.86103 15.9466C9.85456 15.9449 9.84822 15.943 9.84197 15.9411C9.83691 15.9396 9.8319 15.9381 9.82694 15.9368C9.81825 15.9341 9.80962 15.9315 9.80103 15.929C9.77509 15.9212 9.74956 15.9135 9.72425 15.9049C9.71505 15.9019 9.70605 15.8985 9.69703 15.8951C9.69054 15.8926 9.68404 15.8901 9.67743 15.8878C9.66217 15.8818 9.64697 15.8762 9.6318 15.8706C9.61776 15.8655 9.60375 15.8604 9.58973 15.8549C9.57853 15.8501 9.56825 15.8455 9.55738 15.8407C9.54832 15.8367 9.53886 15.8325 9.52812 15.8278C9.5241 15.8261 9.52006 15.8244 9.51601 15.8226C9.49628 15.8141 9.47632 15.8055 9.45706 15.7964C9.42605 15.7817 9.39607 15.7659 9.36588 15.75C9.36087 15.7473 9.3558 15.7448 9.35072 15.7423C9.34308 15.7385 9.3354 15.7346 9.32788 15.7304L9.31556 15.7227C9.25847 15.6913 9.20281 15.6572 9.14859 15.6213C9.14149 15.6167 9.13445 15.6116 9.12737 15.6064C9.12134 15.6021 9.1153 15.5977 9.10916 15.5936C9.06234 15.5613 9.01654 15.5281 8.97197 15.4928C8.9655 15.488 8.95903 15.4825 8.95256 15.477C8.9504 15.4751 8.94825 15.4733 8.94609 15.4715C8.8966 15.4313 8.84854 15.3887 8.80233 15.3462L8.79165 15.3358C8.74093 15.2877 8.69205 15.237 8.64543 15.1849C8.64496 15.1848 8.64485 15.1847 8.64482 15.1847C8.64478 15.1845 8.64496 15.1844 8.6442 15.1834L8.64296 15.1819C8.60805 15.1422 8.57355 15.1017 8.54028 15.0592L8.52755 15.0424C8.49797 15.0043 8.46901 14.9658 8.4417 14.9262C8.43211 14.9126 8.42306 14.8987 8.41409 14.8849C8.41076 14.8798 8.40745 14.8747 8.40412 14.8696C8.39886 14.8615 8.39356 14.8535 8.38826 14.8454C8.37451 14.8245 8.3608 14.8037 8.34805 14.7822C8.31642 14.7292 8.28664 14.6773 8.25851 14.6228C8.06374 14.242 7.96179 13.8176 7.96154 13.3866V7.96154H9.32994V13.3853C9.32994 13.4023 9.33115 13.4189 9.33237 13.4356C9.33289 13.4427 9.33341 13.4498 9.33384 13.457C9.34258 13.6148 9.38066 13.7694 9.44597 13.9123C9.46158 13.9465 9.47883 13.9799 9.49711 14.0121C9.4982 14.0134 9.49904 14.0149 9.49957 14.0165C9.51765 14.0476 9.53695 14.0774 9.55749 14.1069C9.55824 14.1082 9.55911 14.1094 9.56 14.1106C9.56106 14.1121 9.56214 14.1136 9.56303 14.1152C9.58357 14.1429 9.60411 14.1697 9.62465 14.1957C9.62626 14.1976 9.62795 14.1994 9.62964 14.2012C9.63161 14.2032 9.63355 14.2053 9.63532 14.2076C9.65607 14.232 9.67784 14.2552 9.70043 14.2776L9.71665 14.2931C9.73801 14.3133 9.76019 14.3337 9.78299 14.3524C9.79059 14.3588 9.79839 14.3646 9.8064 14.3703C9.82776 14.3873 9.84994 14.4041 9.87253 14.4195C9.88239 14.4263 9.89286 14.4324 9.90292 14.4388C9.92469 14.4526 9.94626 14.4658 9.96844 14.478C9.97663 14.4827 9.98527 14.4869 9.99389 14.4911C9.99844 14.4933 10.003 14.4955 10.0075 14.4978C10.011 14.4995 10.0146 14.5013 10.0182 14.5031C10.0352 14.5117 10.0525 14.5203 10.0703 14.5275C10.0859 14.5343 10.1019 14.5401 10.1179 14.5458C10.1234 14.5478 10.1289 14.5499 10.1344 14.552C10.1487 14.5574 10.1631 14.5628 10.1771 14.5671C10.1919 14.5717 10.2075 14.5756 10.2222 14.5794C10.2265 14.5805 10.2308 14.5816 10.235 14.5826C10.2415 14.5843 10.2481 14.5861 10.2546 14.5879C10.2661 14.5911 10.2776 14.5943 10.2892 14.5969C10.3059 14.6002 10.3226 14.6026 10.3395 14.605C10.3464 14.6059 10.3533 14.6069 10.3603 14.608C10.3678 14.6089 10.3751 14.6102 10.3825 14.6114C10.3901 14.6127 10.3977 14.614 10.4055 14.615C10.4439 14.6184 10.4825 14.6209 10.5223 14.6209H10.5279C10.5673 14.6207 10.6065 14.6184 10.6449 14.615C10.6524 14.614 10.6598 14.6128 10.6673 14.6115C10.6749 14.6102 10.6825 14.6089 10.6903 14.608C10.6975 14.6069 10.7048 14.6058 10.712 14.6048C10.7284 14.6025 10.7448 14.6001 10.761 14.5969C10.7795 14.5928 10.7973 14.588 10.816 14.5826C10.8255 14.5799 10.8347 14.5775 10.8442 14.5749C10.8534 14.5725 10.8628 14.5699 10.8729 14.5671C10.8912 14.5619 10.9086 14.5552 10.9269 14.5482C10.9289 14.5474 10.931 14.5466 10.9331 14.5458C10.9363 14.5446 10.9395 14.5434 10.9427 14.5422C10.9551 14.5377 10.9677 14.533 10.9799 14.528C11.0023 14.5188 11.0228 14.5082 11.0434 14.4975C11.0489 14.4947 11.0545 14.492 11.0601 14.4893C11.0673 14.4859 11.0745 14.4824 11.0818 14.4786C11.1039 14.4661 11.1257 14.4526 11.1475 14.4386C11.1528 14.435 11.1584 14.4316 11.1641 14.4282C11.1686 14.4254 11.1731 14.4227 11.1775 14.4199C11.2003 14.4044 11.2224 14.3875 11.2444 14.3701C11.2465 14.3686 11.2485 14.367 11.2505 14.3655C11.2561 14.3614 11.2616 14.3572 11.267 14.3529C11.2898 14.3339 11.3128 14.3144 11.3333 14.2931C11.3389 14.288 11.3444 14.2831 11.3498 14.2778C11.3734 14.2554 11.3939 14.2322 11.4145 14.208C11.4161 14.206 11.4178 14.2042 11.4194 14.2024C11.4214 14.2003 11.4233 14.1982 11.4251 14.1959C11.4467 14.1699 11.4672 14.1433 11.4868 14.1157L11.4931 14.1069C11.5137 14.0776 11.5323 14.0482 11.55 14.0174L11.5533 14.0121C11.5716 13.9801 11.5886 13.9472 11.604 13.9131V13.911C11.6694 13.7683 11.7076 13.6138 11.7166 13.4561C11.7169 13.4492 11.7174 13.4422 11.7178 13.4353C11.7188 13.4184 11.7199 13.4017 11.7199 13.3844V7.96154H13.0874V13.3802V13.383C13.087 14.0671 13.6221 14.6221 14.2826 14.6225C14.9431 14.6229 15.4788 14.0686 15.4792 13.3844V7.96154H16.8462V13.3855C16.8461 13.8166 16.7441 14.241 16.549 14.6218C16.3075 15.0937 15.9348 15.4797 15.4792 15.7298C15.1415 15.915 14.7678 16.0191 14.386 16.0344Z" fill="#262832"/>
</svg>
