<svg width="24" height="24" viewBox="0 0 24 24" fill="none" xmlns="http://www.w3.org/2000/svg">
<path fill-rule="evenodd" clip-rule="evenodd" d="M2.00517 5.8977C2.001 5.93795 1.99925 5.97853 2 6.0192V18.9826C1.99836 19.0722 2.00876 19.1626 2.03187 19.2514C2.06416 19.3761 2.11994 19.4914 2.19418 19.5923C2.27425 19.7015 2.37343 19.7904 2.48434 19.857C2.61361 19.9349 2.76196 19.9845 2.92073 19.9969C3.0229 20.0051 3.12687 19.9977 3.22893 19.9737C3.33149 19.9497 3.42797 19.9098 3.51567 19.857C5.98286 18.4399 9.01718 18.4399 11.4844 19.857C11.6349 19.9478 11.8114 20 12 20C12.1886 20 12.3651 19.9478 12.5157 19.857C14.9829 18.4399 18.0172 18.4399 20.4844 19.857C20.572 19.9098 20.6684 19.9496 20.7709 19.9736C20.873 19.9977 20.977 20.0051 21.0793 19.9969C21.2381 19.9845 21.3864 19.9349 21.5157 19.8569C21.6266 19.7904 21.7258 19.7015 21.8058 19.5923C21.8798 19.4918 21.9354 19.3771 21.9677 19.2529C21.9911 19.1637 22.0016 19.0727 22 18.9826V6.01917C22.0007 5.97863 21.999 5.93819 21.9949 5.89807C21.9807 5.75776 21.9375 5.62601 21.8713 5.50892C21.7995 5.38123 21.6988 5.26792 21.5722 5.17978C21.5439 5.16001 21.5146 5.14167 21.4842 5.12486C18.5579 3.44238 14.9925 3.35538 12 4.86385C9.00754 3.35537 5.4421 3.44238 2.51574 5.12487C2.4859 5.14141 2.457 5.15944 2.42914 5.17885C2.30177 5.26719 2.20059 5.38095 2.12852 5.50921C2.06254 5.62612 2.0194 5.75764 2.00517 5.8977ZM20 6.60038C17.7916 5.52546 15.2084 5.52546 13 6.60038V17.4265C15.2557 16.5834 17.7443 16.5834 20 17.4265V6.60038ZM11 6.60038V17.4265C8.74426 16.5834 6.25574 16.5834 4 17.4265V6.60038C6.20844 5.52546 8.79157 5.52546 11 6.60038Z" fill="#262832"/>
</svg>
