<svg width="24" height="24" viewBox="0 0 24 24" fill="none" xmlns="http://www.w3.org/2000/svg">
<path fill-rule="evenodd" clip-rule="evenodd" d="M12.3714 4.07152C12.133 3.97616 11.867 3.97616 11.6286 4.07152L1.62861 8.07152C1.24895 8.22339 1 8.5911 1 9C1 9.4089 1.24895 9.77661 1.62861 9.92848L5 11.277V16.0001C5 17.4114 6.11805 18.4198 7.31015 19.0158C8.56205 19.6418 10.2216 20.0001 12 20.0001C13.7784 20.0001 15.4379 19.6418 16.6899 19.0158C17.8819 18.4198 19 17.4114 19 16.0001V11.277L21 10.477V15C21 15.5523 21.4477 16 22 16C22.5523 16 23 15.5523 23 15V9.0233C23.0026 8.90899 22.9855 8.79614 22.9506 8.68943C22.9358 8.6444 22.918 8.60054 22.8971 8.55818C22.7976 8.35594 22.6298 8.18647 22.4099 8.08787C22.3955 8.08138 22.3809 8.07524 22.3662 8.06946L12.3714 4.07152ZM17.6462 9.6645C17.6345 9.6689 17.623 9.67352 17.6115 9.67835L12 11.923L6.38846 9.67835C6.37702 9.67352 6.36547 9.6689 6.35381 9.66449L4.69258 9L12 6.07703L19.3074 9L17.6462 9.6645ZM7 12.077L11.6286 13.9285C11.867 14.0238 12.133 14.0238 12.3714 13.9285L17 12.077V16.0001C17 16.2457 16.7749 16.7372 15.7954 17.227C14.8758 17.6868 13.5353 18.0001 12 18.0001C10.4647 18.0001 9.12424 17.6868 8.20457 17.227C7.22509 16.7372 7 16.2457 7 16.0001V12.077Z" fill="#262832"/>
</svg>
