<svg width="24" height="24" viewBox="0 0 24 24" fill="none" xmlns="http://www.w3.org/2000/svg">
<path fill-rule="evenodd" clip-rule="evenodd" d="M10.5858 2.00009C11.3668 1.21904 12.6332 1.21905 13.4142 2.00009L16.4142 5.00009H20C21.1046 5.00009 22 5.89552 22 7.00009V20.0001C22 21.1047 21.1046 22.0001 20 22.0001H4C2.89543 22.0001 2 21.1047 2 20.0001V7.00009C2 5.89552 2.89543 5.00009 4 5.00009H7.58579L10.5858 2.00009ZM10.4142 5.00009H13.5858L12 3.41431L10.4142 5.00009ZM4 7.00009V20.0001H20V7.00009H4Z" fill="#262832"/>
<path d="M5 17L10.6 10L14 14.4545L15.5 12.5455L19 17H12H5Z" fill="#262832"/>
</svg>
