<svg width="24" height="24" viewBox="0 0 24 24" fill="none" xmlns="http://www.w3.org/2000/svg">
<path fill-rule="evenodd" clip-rule="evenodd" d="M5 5C3.34315 5 2 6.34315 2 8V16C2 17.6569 3.34315 19 5 19H13C14.6569 19 16 17.6569 16 16V15.618L19.106 17.1707C19.7258 17.4804 20.4618 17.4472 21.0512 17.083C21.6407 16.7189 21.9996 16.075 22 15.3821V8.61759C21.9996 7.92471 21.6407 7.28138 21.0512 6.9172C20.4618 6.55302 19.7258 6.51987 19.106 6.82959L16 8.38225V8C16 6.34315 14.6569 5 13 5H5ZM16 10.6182V13.382L20 15.3816V8.61865L16 10.6182ZM14 10.0001V8C14 7.44772 13.5523 7 13 7H5C4.44772 7 4 7.44772 4 8V16C4 16.5523 4.44772 17 5 17H13C13.5523 17 14 16.5523 14 16V14.0001V10.0001Z" fill="#262832"/>
</svg>
