<?xml version="1.0" encoding="UTF-8"?>
<svg xmlns="http://www.w3.org/2000/svg" xmlns:xlink="http://www.w3.org/1999/xlink" width="20px" height="20px" viewBox="0 0 20 20" version="1.1">
  <title>Icons/third_party/linkedin</title>
  <g id="Icons/third_party/linkedin" stroke="none" stroke-width="1" fill="none" fill-rule="evenodd">
    <path d="M20,11.750556 L20,19.1666667 L15.7127778,19.1666667 L15.7127778,12.2478234 C15.7127778,10.5100338 15.0933333,9.32383492 13.5416667,9.32383492 C12.3566667,9.32383492 11.6525,10.1225273 11.3422222,10.8961473 C11.2294444,11.1724999 11.2,11.5566634 11.2,11.9441699 L11.2,19.1666667 L6.91194444,19.1666667 C6.91194444,19.1666667 6.96944444,7.44759039 6.91194444,6.23436917 L11.2,6.23436917 L11.2,8.06687645 C11.1913889,8.08108409 11.1794444,8.09529174 11.1719444,8.1092208 L11.2,8.1092208 L11.2,8.06687645 C11.7697222,7.18767411 12.7863889,5.93071564 15.0638889,5.93071564 C17.8852778,5.93071564 20,7.77854489 20,11.750556 Z M2.42611111,0 C0.959166667,0 0,0.965283935 0,2.2342214 C0,3.47585791 0.931944444,4.46927855 2.36972222,4.46927855 L2.39805556,4.46927855 C3.89333333,4.46927855 4.82305556,3.47585791 4.82305556,2.2342214 C4.795,0.965283935 3.89333333,0 2.42611111,0 Z M0.255,19.1666667 L4.54111111,19.1666667 L4.54111111,6.23436917 L0.255,6.23436917 L0.255,19.1666667 Z" id="linkedin-logo" fill="#000000"></path>
  </g>
</svg>
