<?xml version="1.0" encoding="UTF-8"?>
<svg width="20px" height="20px" viewBox="0 0 20 20" version="1.1" xmlns="http://www.w3.org/2000/svg" xmlns:xlink="http://www.w3.org/1999/xlink">
    <title>linkedin</title>
    <g id="Company" stroke="none" stroke-width="1" fill="none" fill-rule="evenodd">
        <g transform="translate(-928.000000, -2389.000000)" fill="#000000" fill-rule="nonzero" id="Founders">
            <g transform="translate(0.000000, 2099.000000)">
                <g id="Founder_1_text" transform="translate(928.000000, 219.000000)">
                    <path d="M18.0869565,71 L1.38695652,71 C0.62173913,71 1.26476607e-12,71.6304348 1.26476607e-12,72.4043478 L1.26476607e-12,89.073913 C1.26476607e-12,89.8478261 0.62173913,90.4782609 1.38695652,90.4782609 L18.0869565,90.4782609 C18.8521739,90.4782609 19.4782609,89.8478261 19.4782609,89.073913 L19.4782609,72.4043478 C19.4782609,71.6304348 18.8521739,71 18.0869565,71 Z M5.88695652,87.6956522 L3,87.6956522 L3,78.4 L5.89130435,78.4 L5.89130435,87.6956522 L5.88695652,87.6956522 Z M4.44347826,77.1304348 C3.5173913,77.1304348 2.76956522,76.3782609 2.76956522,75.4565217 C2.76956522,74.5347826 3.5173913,73.7826087 4.44347826,73.7826087 C5.36521739,73.7826087 6.1173913,74.5347826 6.1173913,75.4565217 C6.1173913,76.3826087 5.36956522,77.1304348 4.44347826,77.1304348 L4.44347826,77.1304348 Z M16.7086957,87.6956522 L13.8217391,87.6956522 L13.8217391,83.173913 C13.8217391,82.0956522 13.8,80.7086957 12.3217391,80.7086957 C10.8173913,80.7086957 10.5869565,81.8826087 10.5869565,83.0956522 L10.5869565,87.6956522 L7.7,87.6956522 L7.7,78.4 L10.4695652,78.4 L10.4695652,79.6695652 L10.5086957,79.6695652 C10.8956522,78.9391304 11.8391304,78.1695652 13.2434783,78.1695652 C16.1652174,78.1695652 16.7086957,80.0956522 16.7086957,82.6 L16.7086957,87.6956522 L16.7086957,87.6956522 Z" id="linkedin"></path>
                </g>
            </g>
        </g>
    </g>
</svg>