<?xml version="1.0" encoding="UTF-8"?>
<svg xmlns="http://www.w3.org/2000/svg" xmlns:xlink="http://www.w3.org/1999/xlink" width="32px" height="32px" viewBox="0 0 32 32" version="1.1">
  <title>Icons/login-page/dashboard</title>
  <g id="Icons/login-page/dashboard" stroke="none" stroke-width="1" fill="none" fill-rule="evenodd">
    <path d="M3.33846154,6.33846154 L3.33846154,15.1846154 L3.33261538,15.2956923 C3.31858462,15.3939077 3.31858462,15.4184615 3.29052308,15.5143385 C3.07421538,16.2509538 2.03126154,16.6122462 1.40338462,16.0685538 C1.15083077,15.8499077 1.01636923,15.5213538 1,15.1846154 L1,5.16923077 C1.02923077,4.54252308 1.53784615,4.02923077 2.16923077,4 L30.2307692,4 C30.2670154,4.00116923 30.3032615,4.00350769 30.3383385,4.00467692 C30.9217846,4.08652308 31.3731077,4.57993846 31.4,5.16923077 L31.4,26.8769231 C31.3707692,27.5036308 30.8621538,28.0169231 30.2307692,28.0461538 L16.2,28.0461538 C15.8585846,28.0297846 15.8036308,27.9876923 15.6644923,27.9163692 C14.9290462,27.5375385 14.8390154,26.2630769 15.6644923,25.8374769 C15.8281846,25.7532923 16.0117538,25.7170462 16.2,25.7076923 L29.0615385,25.7076923 L29.0615385,6.33846154 L3.33846154,6.33846154 Z M11.5230769,28.0461538 L2.16923077,28.0461538 C1.95643077,28.0403077 1.8968,28.0204308 1.78338462,27.9806769 C1.37064615,27.8368615 1.05729231,27.4463385 1.00701538,27.0078769 C1.00116923,26.9494154 1.00116923,26.9353846 1,26.8769231 L1,19.8615385 C1.00584615,19.6487385 1.02572308,19.5891077 1.06547692,19.4756923 C1.20929231,19.0629538 1.59981538,18.7496 2.03827692,18.6993231 C2.09673846,18.6934769 2.11076923,18.6934769 2.16923077,18.6923077 L11.5230769,18.6923077 C11.5452923,18.6934769 11.5663385,18.6934769 11.5885538,18.6946462 C11.8013538,18.7121846 11.8598154,18.7355692 11.9708923,18.7811692 C12.3532308,18.9401846 12.6385231,19.3143385 12.6852923,19.7305846 C12.6911385,19.7890462 12.6911385,19.8030769 12.6923077,19.8615385 L12.6923077,26.8769231 C12.6864615,27.0897231 12.6665846,27.1493538 12.6268308,27.2627692 C12.4830154,27.6755077 12.0924923,27.9888615 11.6540308,28.0391385 C11.5955692,28.0449846 11.5815385,28.0449846 11.5230769,28.0461538 Z M10.3538462,21.0307692 L3.33846154,21.0307692 L3.33846154,25.7076923 L10.3538462,25.7076923 L10.3538462,21.0307692 Z" id="Mask" fill="#000000"></path>
  </g>
</svg>
