<?xml version="1.0" encoding="UTF-8"?>
<svg xmlns="http://www.w3.org/2000/svg" xmlns:xlink="http://www.w3.org/1999/xlink" width="32px" height="32px" viewBox="0 0 32 32" version="1.1">
  <title>Icons/login-page/developer</title>
  <g id="Icons/login-page/developer" stroke="none" stroke-width="1" fill="none" fill-rule="evenodd">
    <path d="M23,0 L9,0 C4.02943725,0 0,4.02943725 0,9 L0,23 C0,27.9705627 4.02943725,32 9,32 L23,32 C27.9705627,32 32,27.9705627 32,23 L32,9 C32,4.02943725 27.9705627,0 23,0 Z M9,2 L23,2 C26.8659932,2 30,5.13400675 30,9 L30,23 C30,26.8659932 26.8659932,30 23,30 L9,30 C5.13400675,30 2,26.8659932 2,23 L2,9 C2,5.13400675 5.13400675,2 9,2 Z" id="Rectangle" fill="#000000" fill-rule="nonzero"></path>
    <g id="noun_develop_3194307" transform="translate(6.000000, 10.000000)" fill="#000000" fill-rule="nonzero">
      <path d="M10.069133,0.629369321 C10.2042714,0.111338992 10.7437599,-0.203946514 11.2622948,-0.0686765322 C11.6999717,0.0455000479 11.9977238,0.451358779 11.9908167,0.898411978 L11.9826475,1.01088854 L11.9604671,1.12399554 L9.13081272,12.2000608 C9.01971502,12.6222321 8.62089335,12.9213484 8.18526316,12.9213484 L8.06698056,12.9185679 C8.02336658,12.9154526 7.98258048,12.9091237 7.93770518,12.8978996 C7.50002829,12.783723 7.20227625,12.3778642 7.20918335,11.930811 L7.21735252,11.8183345 L7.23953289,11.7052275 L10.069133,0.629369321 Z M4.35136433,1.3359646 C4.70707663,0.935788261 5.33698646,0.921632984 5.72748384,1.28915993 C6.0504438,1.59312225 6.11700325,2.07190038 5.90055313,2.46057076 L5.83448452,2.56413865 L5.75176326,2.66358585 L2.199,6.414 L5.77218842,10.1658645 C6.07746105,10.4902167 6.10924081,10.9906132 5.87771941,11.357176 L5.80805674,11.4535966 L5.72538375,11.541984 C5.52561925,11.7195525 5.3000769,11.8097694 5.05263158,11.8097694 C4.88303666,11.8097694 4.70757586,11.7582263 4.5542036,11.6626737 L4.44375279,11.5828751 L4.35343156,11.4955136 L0.171815638,7.07142745 C-0.127450198,6.77216162 -0.18175342,6.31461058 0.022397789,5.94271981 L0.0914102765,5.83396633 L0.170009764,5.73943826 L4.35136433,1.3359646 Z M13.4725162,1.26894941 C13.7889717,0.971108939 14.2783785,0.931058329 14.6449065,1.15121677 L14.7561466,1.22960969 L14.8465684,1.31349888 L19.0302937,5.73975925 C19.3276147,6.05566279 19.381382,6.51490711 19.1775015,6.8865922 L19.1085938,6.99524005 L19.0301565,7.08960923 L14.8688462,11.4932584 C14.69251,11.6916366 14.4251568,11.8097694 14.1675789,11.8097694 C13.9118657,11.8097694 13.6666897,11.714091 13.4948268,11.541984 C13.1610649,11.2453068 13.092831,10.7539213 13.3047193,10.3646301 L13.3694632,10.261214 L13.4482367,10.1656372 L17,6.414 L13.4278116,2.64314798 C13.1225389,2.31879581 13.0907592,1.81839933 13.3210083,1.45300028 L13.3902915,1.35692673 L13.4725162,1.26894941 Z" id="Combined-Shape"></path>
    </g>
  </g>
</svg>
