<?xml version="1.0" encoding="UTF-8"?>
<svg xmlns="http://www.w3.org/2000/svg" xmlns:xlink="http://www.w3.org/1999/xlink" width="24px" height="24px" viewBox="0 0 24 24" version="1.1">
  <title>Icons/export/solutions/food</title>
  <g id="Icons/export/solutions/food" stroke="none" stroke-width="1" fill="none" fill-rule="evenodd">
    <path d="M11.2688234,4.54510093 L12.134341,5.4095124 L12.9993055,4.54510093 L12.134341,2.3821366 L11.2688234,4.54510093 Z M10.547651,8.11059084 L11.4933603,8.11059084 L11.4806402,7.93306296 C11.4225703,7.11510738 11.0713859,6.34526684 10.4912402,5.76456816 C9.84749427,5.12026915 8.9913785,4.76576643 8.08051114,4.76576643 L7.20282656,4.76576643 L10.547651,8.11059084 Z M16.1887239,4.76576643 C15.2778565,4.76576643 14.4217407,5.12026915 13.7785478,5.76456816 C13.1978491,6.34416075 12.8466647,7.11455434 12.7885948,7.93306296 L12.7758748,8.11059084 L13.721031,8.11059084 L17.0664085,4.76576643 L16.1887239,4.76576643 Z M12.134341,9.40140105 C11.5038681,9.40140105 10.8888806,9.51588165 10.3076288,9.74263066 L10.070925,9.8349894 L12.134341,11.8984054 L14.19831,9.8349894 L13.9616062,9.74263066 C13.3798014,9.51588165 12.7653669,9.40140105 12.134341,9.40140105 L12.134341,9.40140105 Z M8.82988896,10.6380127 C7.73153889,11.5947829 7.10217212,12.9785049 7.10217212,14.434123 L7.10217212,16.9316803 L11.2223675,12.812038 L8.94658175,10.5362522 L8.82988896,10.6380127 Z M15.212597,10.6457554 L13.0474205,12.812038 L17.1670629,16.9316803 L17.1670629,14.434123 C17.1654038,14.0005346 17.1123113,13.5774541 17.0094447,13.1764955 C16.8424247,12.5299843 16.5382492,11.9067011 16.130654,11.3746705 C15.9293451,11.1125265 15.70149,10.86808 15.4515131,10.6485206 L15.3353733,10.545654 L15.212597,10.6457554 Z M10.2080805,15.650825 L12.134341,17.5765324 L14.0611545,15.650825 L12.134341,13.7245645 L10.2080805,15.650825 Z M13.0474205,18.490165 L15.7462868,21.1879252 L15.8629796,21.0585123 C16.4552922,20.4064706 16.8667587,19.6078717 17.0525823,18.7500968 L17.0719389,18.6610563 L14.973681,16.5633515 L13.0474205,18.490165 Z M7.19674305,18.6610563 L7.21609968,18.7500968 C7.4024763,19.6073186 7.81394279,20.4059176 8.4057024,21.0585123 L8.52294823,21.1879252 L11.2229206,18.490165 L9.29610705,16.5633515 L7.19674305,18.6610563 Z M12.3002549,22.7088027 C13.0811564,22.6828095 13.8498908,22.474864 14.5345622,22.1032169 L14.7297876,21.997585 L12.134341,19.4021384 L9.53944745,21.997585 L9.73467282,22.1032169 C10.4187912,22.474864 11.1875256,22.6828095 11.9689801,22.7088027 L11.9689801,24.0001659 C8.55889625,23.9116785 5.81136191,21.1099456 5.81136191,17.678846 L5.81136191,14.434123 C5.81136191,12.0941838 7.09498252,9.95500046 9.16116374,8.85167297 L9.35860129,8.74659416 L5.18918475,4.57717762 C5.00446727,4.39190709 4.94916263,4.11593695 5.04926402,3.87370265 C5.14991846,3.63202138 5.38385707,3.47495622 5.645448,3.47495622 L8.08051114,3.47495622 C8.7325528,3.47495622 9.36689698,3.60824039 9.96529315,3.86983132 L10.1218053,3.93896212 L11.5348387,0.404995852 C11.633281,0.158337174 11.8688787,-0.000387132455 12.134341,-0.000387132455 C12.4003563,-0.000387132455 12.635401,0.158337174 12.7332902,0.404995852 L14.1479828,3.93896212 L14.3044949,3.86983132 C14.902338,3.60824039 15.5366822,3.47495622 16.1887239,3.47495622 L18.623787,3.47495622 C18.8848249,3.47495622 19.1193166,3.63202138 19.219971,3.87425569 C19.3195193,4.11593695 19.2647678,4.39190709 19.0800503,4.57717762 L14.9106337,8.74659416 L15.1075182,8.85167297 C17.1742525,9.95500046 18.4578731,12.0941838 18.4578731,14.434123 L18.4578731,17.678846 C18.4578731,21.1099456 15.7103388,23.9116785 12.3002549,24.0001659 L12.3002549,22.7088027 Z" id="food" fill="#000000"></path>
  </g>
</svg>
