<?xml version="1.0" encoding="UTF-8"?>
<svg xmlns="http://www.w3.org/2000/svg" xmlns:xlink="http://www.w3.org/1999/xlink" width="32px" height="32px" viewBox="0 0 32 32" version="1.1">
  <title>Icons/login-page/management</title>
  <g id="Icons/login-page/management" stroke="none" stroke-width="1" fill="none" fill-rule="evenodd">
    <path d="M2.14714286,14.3766667 C1.93571429,14.3704762 1.89,14.3547619 1.76857143,14.312381 C1.36238095,14.1704762 1.05619048,13.787619 1.00666667,13.357619 C1.00142857,13.3042857 1.00142857,13.2880952 1,13.2357143 L1,2.14714286 C1.00619048,1.93571429 1.02190476,1.89 1.06428571,1.76857143 C1.20571429,1.36238095 1.58904762,1.05619048 2.01857143,1.00714286 C2.07238095,1.00142857 2.08857143,1.00142857 2.14047619,1 L13.2290476,1 L13.287619,1.00190476 C13.5719048,1.02571429 13.6385714,1.06238095 13.7842857,1.14333333 C14.102381,1.31904762 14.3147619,1.6847619 14.3380952,2.09809524 C14.3609524,2.50714286 14.1995238,2.86619048 13.8933333,3.08380952 C13.7119048,3.21238095 13.4733333,3.28714286 13.222381,3.2947619 L3.29428571,3.2947619 L3.29428571,12.082381 L12.0819048,12.082381 L12.0819048,7.71761905 C12.1252381,7.55428571 12.4133333,6.58619048 13.1657143,6.54333333 L13.2228571,6.54190476 C13.8204762,6.54190476 14.3595238,7.08047619 14.3766667,7.6947619 L14.3766667,13.2295238 C14.3704762,13.4428571 14.3538095,13.4909524 14.312381,13.607619 C14.1704762,14.0142857 13.7871429,14.3204762 13.357619,14.3695238 C13.3042857,14.3752381 13.2880952,14.3752381 13.2357143,14.3766667 L13.2290476,14.3766667 L2.14714286,14.3766667 Z M19.917619,12.082381 L28.7052381,12.082381 L28.7052381,3.2947619 L19.917619,3.2947619 L19.917619,12.082381 Z M18.7704762,14.3766667 C18.5590476,14.3704762 18.5133333,14.3547619 18.3919048,14.312381 C17.9857143,14.1704762 17.6795238,13.787619 17.6304762,13.357619 C17.6247619,13.3042857 17.6247619,13.2880952 17.6233333,13.2357143 L17.6233333,2.14714286 C17.6295238,1.93571429 17.6452381,1.89 17.687619,1.76857143 C17.8295238,1.36238095 18.212381,1.05619048 18.642381,1.00714286 C18.6957143,1.00142857 18.7119048,1.00142857 18.7642857,1 L29.8528571,1 L29.9114286,1.00190476 C30.1280952,1.01952381 30.1728571,1.03809524 30.2928571,1.08761905 C30.6661905,1.24238095 30.947619,1.61714286 30.9928571,2.01857143 C30.9985714,2.07238095 30.9985714,2.08857143 31,2.14095238 L31,13.2295238 C30.9938095,13.4428571 30.9771429,13.4909524 30.9357143,13.607619 C30.7938095,14.0142857 30.4109524,14.3204762 29.9809524,14.3695238 C29.927619,14.3752381 29.9114286,14.3752381 29.8590476,14.3766667 L29.8528571,14.3766667 L18.7704762,14.3766667 Z M3.29428571,28.7057143 L12.0819048,28.7057143 L12.0819048,19.9180952 L3.29428571,19.9180952 L3.29428571,28.7057143 Z M2.14714286,31 C1.93571429,30.9938095 1.89,30.9780952 1.76857143,30.9357143 C1.36238095,30.7942857 1.05619048,30.4109524 1.00666667,29.9814286 C1.00142857,29.927619 1.00142857,29.9114286 1,29.8595238 L1,18.7709524 C1.00619048,18.5590476 1.02190476,18.5138095 1.06428571,18.392381 C1.20571429,17.9857143 1.58904762,17.68 2.01857143,17.6304762 C2.07238095,17.6247619 2.08857143,17.6247619 2.14047619,17.6233333 L13.2290476,17.6233333 L13.2880952,17.6252381 C13.5047619,17.6428571 13.5490476,17.6614286 13.6695238,17.7109524 C14.042381,17.8657143 14.3242857,18.2404762 14.3695238,18.6419048 C14.3752381,18.6957143 14.3752381,18.7119048 14.3766667,18.7642857 L14.3766667,29.8528571 C14.3704762,30.0661905 14.3538095,30.1142857 14.312381,30.2309524 C14.1704762,30.637619 13.7866667,30.9438095 13.357619,30.9933333 C13.3042857,30.9985714 13.2880952,30.9985714 13.2357143,31 L13.2290476,31 L2.14714286,31 Z M19.917619,28.7057143 L28.7052381,28.7057143 L28.7052381,19.9180952 L19.917619,19.9180952 L19.917619,28.7057143 Z M18.7704762,31 C18.5590476,30.9938095 18.5133333,30.9780952 18.3919048,30.9357143 C17.9857143,30.7942857 17.6795238,30.4109524 17.6304762,29.9814286 C17.6247619,29.927619 17.6247619,29.9114286 17.6233333,29.8595238 L17.6233333,18.7709524 C17.6295238,18.5590476 17.6452381,18.5138095 17.687619,18.392381 C17.8295238,17.9857143 18.212381,17.68 18.642381,17.6304762 C18.6957143,17.6247619 18.7119048,17.6247619 18.7642857,17.6233333 L29.8528571,17.6233333 L29.9114286,17.6252381 C30.1280952,17.6428571 30.1728571,17.6614286 30.2928571,17.7109524 C30.6661905,17.8657143 30.947619,18.2404762 30.9928571,18.6419048 C30.9985714,18.6957143 30.9985714,18.7119048 31,18.7642857 L31,29.8528571 C30.9938095,30.0661905 30.9771429,30.1142857 30.9357143,30.2309524 C30.7938095,30.637619 30.4104762,30.9438095 29.9809524,30.9933333 C29.927619,30.9985714 29.9114286,30.9985714 29.8590476,31 L29.8528571,31 L18.7704762,31 Z" id="Fill-1" fill="#000000"></path>
  </g>
</svg>
