<?xml version="1.0" encoding="UTF-8"?>
<svg xmlns="http://www.w3.org/2000/svg" xmlns:xlink="http://www.w3.org/1999/xlink" width="16px" height="16px" viewBox="0 0 16 16" version="1.1">
  <title>Icons/export/other/user</title>
  <g id="Icons/export/other/user" stroke="none" stroke-width="1" fill="none" fill-rule="evenodd">
    <path d="M8.18,-1.0658141e-14 C10.58,-1.0658141e-14 12.48,1.95 12.48,4.3 C12.48,5.913013 11.5848545,7.36113078 10.2472924,8.11078021 C13.1495201,9.0016298 15.28,11.7177937 15.28,14.9 L15.28,16 L14.43,16 L14.43,14.9 C14.43,11.45 11.63,8.65 8.18,8.65 C4.73,8.65 1.93,11.45 1.93,14.9 L1.93,16 L1.08,16 L1.08,14.9 C1.08,11.7229286 3.20360974,9.01039687 6.09929483,8.11393915 C4.76891218,7.37763488 3.88,5.95738714 3.88,4.35 C3.88,2 5.78,-1.0658141e-14 8.18,-1.0658141e-14 Z M8.18,0.85 C6.28,0.85 4.68,2.4 4.68,4.35 C4.68,6.13558824 5.9796461,7.58578393 7.69598455,7.81763334 C7.85604648,7.80556137 8.01741497,7.8 8.18,7.8 C8.34258503,7.8 8.50395352,7.80556137 8.66392432,7.81650299 C10.3803539,7.58578393 11.68,6.13558824 11.68,4.35 C11.68,2.4 10.08,0.85 8.18,0.85 Z" id="user" fill="#000000" fill-rule="nonzero"></path>
  </g>
</svg>
