<?xml version="1.0" encoding="UTF-8"?>
<svg preserveAspectRatio="xMidYMid slice" xmlns="http://www.w3.org/2000/svg" xmlns:xlink="http://www.w3.org/1999/xlink" width="68px" height="68px" viewBox="0 0 24 24" version="1.1">
  <title>var</title>
  <g id="var" stroke="none" stroke-width="1" fill="none" fill-rule="evenodd">
    <path d="M12,0 C15.3137085,0 18.3137085,1.34314575 20.4852814,3.51471863 C22.6568542,5.6862915 24,8.6862915 24,12 C24,15.3137085 22.6568542,18.3137085 20.4852814,20.4852814 C18.3137085,22.6568542 15.3137085,24 12,24 C8.6862915,24 5.6862915,22.6568542 3.51471863,20.4852814 C1.34314575,18.3137085 0,15.3137085 0,12 C0,8.6862915 1.34314575,5.6862915 3.51471863,3.51471863 C5.6862915,1.34314575 8.6862915,0 12,0 Z M12,2 C9.23857625,2 6.73857625,3.11928813 4.92893219,4.92893219 C3.11928813,6.73857625 2,9.23857625 2,12 C2,14.7614237 3.11928813,17.2614237 4.92893219,19.0710678 C6.73857625,20.8807119 9.23857625,22 12,22 C14.7614237,22 17.2614237,20.8807119 19.0710678,19.0710678 C20.8807119,17.2614237 22,14.7614237 22,12 C22,9.23857625 20.8807119,6.73857625 19.0710678,4.92893219 C17.2614237,3.11928813 14.7614237,2 12,2 Z" id="Combined-Shape" fill="#000000"></path>
    <path d="M11.8773388,4.310082 C12.2828068,4.310082 12.6132988,4.638204 12.6132988,5.046042 L12.6132988,5.43276 C13.6046788,5.573388 14.6265988,6.004632 15.5640988,6.70074 C15.8898808,6.942144 15.9578488,7.40388 15.7164448,7.72962 C15.4750408,8.055402 15.0133048,8.12337 14.6875648,7.881966 C14.0149048,7.380402 13.2977248,7.054626 12.6133648,6.921006 L12.6133648,11.371806 C14.5446448,12.428826 16.0305448,13.326486 15.7727248,15.574146 C15.6274108,16.851486 14.9453848,17.751486 13.8040048,18.175686 C13.4266588,18.316314 13.0235248,18.393654 12.6157048,18.424122 L12.6157048,18.695994 C12.6110188,19.099122 12.2805508,19.427298 11.8750648,19.427298 L11.8750048,19.427298 C11.4695368,19.427298 11.1390448,19.09917 11.1390448,18.691338 L11.1390448,18.34446 C9.96718479,18.154614 8.92186479,17.68818 8.47420479,17.27808 C8.17655079,17.001516 8.15780079,16.53744 8.43201879,16.23978 C8.70623679,15.942126 9.17031879,15.92103 9.47031879,16.197594 C9.70938279,16.417908 10.3726588,16.701498 11.1390388,16.853874 L11.1413788,12.236694 C9.55233879,11.348394 7.74525879,10.202334 8.40153879,7.708554 C8.65466679,6.749934 9.40701879,5.985894 10.4663788,5.615574 C10.6843468,5.538228 10.9093468,5.481978 11.1413788,5.442138 L11.1413788,5.046042 C11.1413788,4.640574 11.4695068,4.310082 11.8773388,4.310082 Z M12.6109648,13.052292 L12.6109648,16.942938 C12.8500288,16.919496 13.0773688,16.870284 13.2883048,16.790592 C13.9023448,16.560906 14.2258048,16.120272 14.3101648,15.398412 C14.4320368,14.332032 13.9632928,13.837452 12.6109648,13.052292 Z M11.1414448,6.941898 C11.0781628,6.958302 11.0148808,6.979398 10.9539448,7.000488 C10.3633168,7.209084 9.95080479,7.602828 9.82426479,8.083308 C9.52895079,9.201288 9.95786079,9.787188 11.1414448,10.530168 L11.1414448,6.941898 Z" id="Combined-Shape" fill="#000000"></path>
  </g>
</svg>
