<?xml version="1.0" encoding="UTF-8"?>
<svg xmlns="http://www.w3.org/2000/svg" xmlns:xlink="http://www.w3.org/1999/xlink" width="40px" height="40px" viewBox="0 0 40 40" version="1.1">
  <title>Icons/export/product/interface</title>
  <defs>
    <path d="M3.67307692,11.6730769 L3.67307692,18.9807692 L3.66576923,19.1196154 C3.64823077,19.2423846 3.64823077,19.2730769 3.61315385,19.3929231 C3.34276923,20.3136923 2.03907692,20.7653077 1.25423077,20.0856923 C0.938538462,19.8123846 0.770461538,19.4016923 0.75,18.9807692 L0.75,10.2115385 C0.786538462,9.42815385 1.42230769,8.78653846 2.21153846,8.75 L37.2884615,8.75 C37.3337692,8.75146154 37.3790769,8.75438462 37.4229231,8.75584615 C38.1522308,8.85815385 38.7163846,9.47492308 38.75,10.2115385 L38.75,33.5961538 C38.7134615,34.3795385 38.0776923,35.0211538 37.2884615,35.0576923 L19.75,35.0576923 C19.3232308,35.0372308 19.2545385,34.9846154 19.0806154,34.8954615 C18.1613077,34.4219231 18.0487692,32.8288462 19.0806154,32.2968462 C19.2852308,32.1916154 19.5146923,32.1463077 19.75,32.1346154 L35.8269231,32.1346154 L35.8269231,11.6730769 L3.67307692,11.6730769 Z M13.9038462,35.0576923 L2.21153846,35.0576923 C1.94553846,35.0503846 1.871,35.0255385 1.72923077,34.9758462 C1.21330769,34.7960769 0.821615385,34.3079231 0.758769231,33.7598462 C0.751461538,33.6867692 0.751461538,33.6692308 0.75,33.5961538 L0.75,24.8269231 C0.757307692,24.5609231 0.782153846,24.4863846 0.831846154,24.3446154 C1.01161538,23.8286923 1.49976923,23.437 2.04784615,23.3741538 C2.12092308,23.3668462 2.13846154,23.3668462 2.21153846,23.3653846 L13.9038462,23.3653846 C13.9316154,23.3668462 13.9579231,23.3668462 13.9856923,23.3683077 C14.2516923,23.3902308 14.3247692,23.4194615 14.4636154,23.4764615 C14.9415385,23.6752308 15.2981538,24.1429231 15.3566154,24.6632308 C15.3639231,24.7363077 15.3639231,24.7538462 15.3653846,24.8269231 L15.3653846,33.5961538 C15.3580769,33.8621538 15.3332308,33.9366923 15.2835385,34.0784615 C15.1037692,34.5943846 14.6156154,34.9860769 14.0675385,35.0489231 C13.9944615,35.0562308 13.9769231,35.0562308 13.9038462,35.0576923 Z M12.4423077,26.2884615 L3.67307692,26.2884615 L3.67307692,32.1346154 L12.4423077,32.1346154 L12.4423077,26.2884615 Z" id="path-1"></path>
  </defs>
  <g id="Icons/export/product/interface" stroke="none" stroke-width="1" fill="none" fill-rule="evenodd">
    <mask id="mask-2" fill="white">
      <use xlink:href="#path-1"></use>
    </mask>
    <use id="Mask" fill="#27BCBC" xlink:href="#path-1"></use>
  </g>
</svg>
