<?xml version="1.0" encoding="UTF-8"?>
<svg xmlns="http://www.w3.org/2000/svg" xmlns:xlink="http://www.w3.org/1999/xlink" width="40px" height="40px" viewBox="0 0 40 40" version="1.1">
  <title>Icons/export/product/non_volatile_memory</title>
  <g id="Icons/export/product/non_volatile_memory" stroke="none" stroke-width="1" fill="none" fill-rule="evenodd">
    <path d="M13.897,0.521 C14.6793657,0.521 15.321,1.15110795 15.321,1.921 C15.321,2.45539179 15.0170771,2.92312281 14.5727412,3.15882166 L14.4482003,3.21722605 L14.427,3.224 L14.4219163,3.37516347 L9.299,8.498 L9.299,12.521 L10.9,12.521 C11.5742433,12.521 12.1486109,13.0160449 12.2744241,13.6574559 L12.2935027,13.7875863 L12.3,13.921 L12.3,19.921 C12.3,20.6477222 11.7438355,21.2466351 11.0346642,21.3145809 L10.9,21.321 L9.299,21.32 L9.299,36.521 L30.5,36.521 L30.5,13.921 C30.5,13.2256026 30.9849196,12.6510622 31.6328823,12.5255011 L31.7645533,12.5064725 L31.9,12.5 C32.6191928,12.5 33.2247493,13.063251 33.2935027,13.7665863 L33.3,13.9 L33.3,37.921 C33.3,38.6477222 32.7438355,39.2466351 32.0346642,39.3145809 L31.9,39.321 L7.9,39.321 C7.17327776,39.321 6.57436486,38.7648355 6.50641913,38.0556642 L6.5,37.921 L6.5,19.921 C6.5,19.1942778 7.05616454,18.5953649 7.76533577,18.5274191 L7.9,18.521 L9.499,18.521 L9.499,15.321 L7.9,15.321 C7.2186979,15.321 6.64972823,14.8321835 6.5252828,14.1867424 L6.50641913,14.0556642 L6.5,13.921 L6.5,7.918 C6.5,7.5947246 6.6137503,7.27928659 6.81697335,7.0306928 L6.90947609,6.92841714 L12.9063928,0.932503563 C13.1671903,0.670144442 13.5267941,0.521 13.897,0.521 Z M19.886,0.5 C20.6151889,0.5 21.2243267,1.06026592 21.2934668,1.76605955 L21.3,1.9 L21.3,7.921 C21.3,8.70911709 20.6771477,9.342 19.9,9.342 C19.1732778,9.342 18.5743649,8.78583546 18.5064191,8.07666423 L18.5,7.942 L18.50005,1.92807 C18.4898185,1.20456045 19.041976,0.58913368 19.7444189,0.508762601 L19.886,0.5 Z M25.886,0.5 C26.6151889,0.5 27.2243267,1.06026592 27.2934668,1.76605955 L27.3,1.9 L27.3,7.921 C27.3,8.70911709 26.6771477,9.342 25.9,9.342 C25.1732778,9.342 24.5743649,8.78583546 24.5064191,8.07666423 L24.5,7.942 L24.50005,1.92807 C24.4898185,1.20456045 25.041976,0.58913368 25.7444189,0.508762601 L25.886,0.5 Z M31.886,0.5 C32.6151889,0.5 33.2243267,1.06026592 33.2934668,1.76605955 L33.3,1.9 L33.3,7.921 C33.3,8.70911709 32.6771477,9.342 31.9,9.342 C31.1732778,9.342 30.5743649,8.78583546 30.5064191,8.07666423 L30.5,7.942 L30.50005,1.92807 C30.4898185,1.20456045 31.041976,0.58913368 31.7444189,0.508762601 L31.886,0.5 Z" id="Mask" fill="#27BCBC" fill-rule="nonzero"></path>
  </g>
</svg>
