<?xml version="1.0" encoding="UTF-8"?>
<svg xmlns="http://www.w3.org/2000/svg" xmlns:xlink="http://www.w3.org/1999/xlink" width="563px" height="88px" viewBox="0 0 563 88" version="1.1">
  <title>Group 16</title>
  <g id="Page-1" stroke="none" stroke-width="1" fill="none" fill-rule="evenodd">
    <g id="Group-16" fill="#000000">
      <path d="M162.209,42.618936 C161.5,18.597936 147.08,3.75293597 129.233,4.20593597 C111.385,4.65993597 97.793,20.183936 98.502,44.201936 C99.21,68.564936 113.04,83.067936 131.005,82.614936 C148.852,82.161936 162.918,66.866936 162.209,42.618936 M174.265,42.391936 C175.091,71.962936 155.709,86.353936 131.478,87.033936 C107.129,87.598936 87.156,74.229936 86.328,44.655936 C85.501,15.426936 104.766,0.693935965 129.115,0.0169359652 C153.344,-0.551064035 173.437,13.159936 174.265,42.391936" id="Fill-1"></path>
      <path d="M327.5137,85.084736 C326.6877,82.701736 324.0857,73.721736 320.5397,63.036736 L311.6767,36.332736 C309.0757,28.492736 305.4107,18.263736 304.7037,17.126736 C304.7037,17.126736 303.0477,22.009736 300.4487,29.286736 L288.7467,62.015736 C284.7287,73.150736 281.3007,82.586736 280.1177,85.084736 L271.6077,85.084736 C270.7827,82.586736 267.2347,70.880736 262.8627,57.131736 L252.2237,24.060736 C248.2047,11.671736 244.8957,2.23573597 244.1887,1.78173597 L257.5437,1.78173597 C257.5437,1.78173597 260.0247,10.307736 263.3337,21.442736 L272.3177,52.128736 C275.5087,62.924736 277.9917,71.335736 278.3467,72.017736 C278.3467,72.017736 281.4197,64.516736 285.2007,53.832736 L295.8387,23.829736 C298.5567,16.104736 300.9217,8.48873597 302.8117,1.78173597 L311.7947,1.78173597 C312.3847,3.71573597 314.9867,12.010736 318.2947,22.125736 L330.4697,59.059736 C332.5967,65.650736 334.3697,70.313736 334.8427,70.880736 C334.8427,70.880736 336.9697,65.426736 339.8057,57.470736 L350.2057,28.149736 C353.2817,19.511736 357.8897,4.39473597 358.0077,1.78173597 L367.5447,1.78173597 C364.9457,7.80573597 360.2537,18.602736 355.2887,32.578736 L346.5427,57.243736 C342.0527,69.858736 339.5697,77.128736 336.9697,85.084736 L327.5137,85.084736 Z" id="Fill-3"></path>
      <path d="M401.9903,79.783936 C408.8453,79.783936 418.1833,79.443936 429.0563,78.534936 L429.0563,85.237936 L376.3103,85.179936 C376.3103,85.179936 376.5763,82.747936 376.8833,78.171936 C377.0773,75.287936 377.2873,71.551936 377.4593,67.037936 C377.7523,59.316936 377.7393,47.020936 377.7393,40.188936 L377.6813,26.461936 C377.6813,17.712936 377.5753,9.72893597 376.8673,1.77293597 L428.3273,1.54793597 L428.3273,8.36993597 C428.3273,8.36993597 418.2813,6.88993597 401.2613,6.88993597 C397.8333,6.88993597 394.1693,7.00593597 390.1503,7.11693597 C390.1503,7.11693597 389.5593,13.711936 389.5593,22.916936 L389.5593,34.849936 C389.5593,35.867936 389.6773,36.892936 389.6773,37.918936 C389.6773,37.918936 395.7073,38.141936 404.6883,38.141936 C411.0703,38.141936 420.4083,38.141936 424.7823,37.347936 L424.7823,44.054936 C424.7823,44.054936 417.2183,43.144936 403.8603,43.256936 C399.6053,43.256936 394.8793,43.484936 389.5593,43.711936 C389.5593,43.711936 389.2243,46.260936 389.2243,50.122936 L389.2243,66.712936 C389.2243,70.690936 389.3433,74.899936 389.5793,79.555936 C389.5793,79.555936 394.1893,79.783936 401.9903,79.783936" id="Fill-5"></path>
      <path d="M443.6436,69.315236 C443.6436,69.315236 449.7896,82.157236 465.6276,82.268236 C476.2646,82.268236 486.3106,76.065236 486.3106,66.155236 C486.6646,60.602236 484.1516,52.696236 473.0746,48.662236 L462.9286,44.953236 C449.3026,40.359236 441.9886,31.655236 441.9886,22.949236 C441.9886,11.407236 452.8626,0.412235965 472.0096,0.198235965 C478.5096,0.198235965 485.4846,1.39423597 490.4476,4.44323597 L490.4476,13.371236 L488.9126,13.371236 C488.9126,13.371236 485.0116,4.44323597 472.0096,4.44323597 C462.2006,4.44323597 452.3886,10.647236 452.7436,19.899236 C452.8626,24.256236 455.8166,30.459236 467.0466,34.270236 L476.1466,37.319236 C487.9656,41.240236 497.1866,49.828236 497.1866,61.038236 C497.1866,71.381236 489.1586,79.861236 479.5426,84.107236 C473.8786,86.609236 468.0646,87.409236 462.7706,87.409236 C457.4766,87.409236 454.9106,86.548236 452.3466,85.921236 C449.7836,85.295236 445.1576,83.377236 441.4946,81.162236 L441.3976,69.315236 L443.6436,69.315236 Z" id="Fill-7"></path>
      <polygon id="Fill-10" points="562.6621 1.62863597 537.7061 1.62863597 526.4391 1.62863597 501.4821 1.62863597 501.4821 6.98163597 526.4391 6.98163597 526.2251 85.144636 537.6741 85.149636 537.7061 6.98163597 562.6621 6.98163597"></polygon>
      <path d="M226.2432,21.473436 C226.2432,15.799436 224.4622,11.803436 220.8952,9.47843597 C217.3312,7.15443597 212.2912,5.99243597 205.7762,5.99243597 C202.1292,5.99243597 199.2202,6.07143597 197.0502,6.22643597 C196.9672,8.11443597 196.8842,10.323436 196.8042,12.843436 C196.7212,15.366436 196.6392,18.636436 196.5582,22.654436 C196.4752,26.675436 196.4132,29.952436 196.3722,32.494436 C196.3302,35.035436 196.3122,37.684436 196.3122,40.442436 C198.3192,40.521436 201.4122,40.561436 205.5922,40.561436 C212.2292,40.561436 217.3312,38.966436 220.8952,35.775436 C224.4622,32.584436 226.2432,27.815436 226.2432,21.473436 M244.8672,85.602436 C242.9002,85.291436 241.6172,85.219436 238.4022,85.219436 C235.1862,85.219436 234.9092,85.291436 231.9582,85.602436 C230.9772,82.295436 229.6442,77.990436 227.9642,73.419436 C226.2842,68.849436 224.5332,64.691436 222.7082,60.952436 C220.8862,57.205436 219.2152,54.447436 217.7012,52.679436 C215.3232,49.921436 213.0492,48.018436 210.8782,46.975436 C208.7062,45.929436 205.9002,45.409436 202.4572,45.409436 L196.3122,45.409436 C196.3122,63.493436 196.6392,77.133436 197.2952,85.602436 C196.6392,85.566436 193.7722,85.219436 191.2452,85.257436 C188.7202,85.295436 187.0922,85.291436 185.1252,85.602436 C186.1082,73.982436 186.6002,60.143436 186.6002,44.817436 L186.6002,32.937436 C186.5182,26.675436 186.3542,20.755436 186.1082,15.178436 C185.8632,9.60543597 185.4942,4.84743597 185.0032,0.909435965 C187.4182,1.06443597 190.3902,1.14443597 193.9152,1.14443597 C195.0202,1.14443597 197.2132,1.10443597 200.4902,1.02543597 C203.7672,0.945435965 206.1462,0.909435965 207.6212,0.909435965 C226.9192,0.909435965 236.5692,7.38943597 236.5692,20.351436 C236.5692,25.079436 235.4932,29.064436 233.3422,32.317436 C231.1912,35.569436 228.6602,38.031436 225.7512,39.705436 C222.8422,41.380436 220.1992,42.391436 217.8232,42.748436 L217.8232,43.222436 C219.0942,43.459436 220.5362,44.167436 222.1572,45.348436 C223.7752,46.528436 225.0962,47.733436 226.1212,48.953436 C228.9872,52.144436 231.7152,56.458436 234.2952,61.897436 C235.4422,64.258436 236.7322,67.077436 238.1682,70.344436 C239.6022,73.619436 240.6662,76.040436 241.3632,77.614436 C241.7722,78.444436 242.6812,80.546436 243.0712,81.391436 C243.4602,82.244436 244.4972,84.779436 244.8672,85.602436" id="Fill-12"></path>
      <path d="M74.671,32.998836 C74.754,26.579836 74.917,20.511836 75.163,14.794836 C75.375,9.86083597 75.965,5.28983597 76.36,1.60483597 L64.763,1.66283597 L64.888,15.022836 L64.888,70.076836 L12.223,1.75183597 L0.229,1.60083597 C0.658,5.42083597 0.99,9.90483597 1.215,15.122836 C1.461,20.838836 1.624,26.906836 1.707,33.326836 L1.707,45.502836 C1.707,60.316836 0.874,73.706836 -1.42108547e-14,85.142836 L11.253,85.199836 L11.184,76.993836 L11.184,15.654836 L63.901,85.199836 L76.016,85.142836 C75.109,73.560836 74.671,60.261836 74.671,45.175836 L74.671,32.998836 Z" id="Fill-14"></path>
    </g>
  </g>
</svg>
