<?xml version="1.0" encoding="UTF-8"?>
<svg preserveAspectRatio="xMidYMid slice" xmlns="http://www.w3.org/2000/svg" xmlns:xlink="http://www.w3.org/1999/xlink" width="68px" height="68px" viewBox="0 0 40 40" version="1.1">
  <title>Icons/export/product/functinality</title>
  <defs>
    <path d="M37.457878,26.1833583 C37.9094921,26.2418197 38.0264148,26.3251271 38.229568,26.4800498 C39.0246426,27.088048 38.9033353,28.5232745 37.9036459,28.9968116 L20.3170054,36.3249438 C19.7586994,36.5295586 19.7236225,36.5193279 19.1901626,36.3249438 L1.60498359,28.9968116 C1.21767704,28.8141198 1.17383101,28.73812 1.04813908,28.5890436 C0.378756433,27.793969 0.890293388,26.278358 2.04928997,26.1833583 C2.28021237,26.1658199 2.50967323,26.2111275 2.73182643,26.2915119 L19.7543148,33.3843371 L36.7753416,26.2915119 C36.7753416,26.2915119 36.9054181,26.1658199 37.457878,26.1833583 Z M37.457878,18.8566876 C37.9094921,18.915149 38.0264148,18.9969949 38.229568,19.153379 C39.0246426,19.7613772 38.9033353,21.1966038 37.9036459,21.6701408 L20.3170054,28.9968116 C19.7586994,29.2014264 19.7236225,29.1926572 19.1901626,28.9968116 L1.60498359,21.6701408 C0.475217687,21.1352193 0.418217855,19.1402252 1.91190576,18.874226 C2.16328964,18.83038 2.30359692,18.8099185 2.73182643,18.9648411 L19.7543148,26.0576664 L36.7753416,18.9648411 C36.7753416,18.9648411 36.9054181,18.8376877 37.457878,18.8566876 L37.457878,18.8566876 Z M19.7060841,4.1975 C19.7733147,4.1975 19.8522375,4.2018846 19.9457757,4.21065381 C20.0246986,4.22380761 20.0831599,4.22380761 20.3170054,4.31003813 L37.9036459,11.6367089 C38.9559505,12.135092 39.0567964,13.7968563 37.9036459,14.3434701 L20.3170054,21.6701408 C20.0466216,21.7695252 19.8990066,21.8177558 19.7572378,21.8192173 L19.744084,21.8206789 C19.5993921,21.8192173 19.4561618,21.7680636 19.1901626,21.6701408 L1.60498359,14.3434701 C0.546832861,13.8421639 0.451833141,12.1833226 1.60498359,11.6367089 L19.1901626,4.31003813 C19.3348545,4.2574229 19.4079312,4.19896153 19.6724688,4.1975 L19.7060841,4.1975 Z M19.7543148,7.25064485 C15.1621744,9.16379307 10.5700341,11.0769413 5.97935532,12.9900895 L19.7543148,18.7295341 L33.5292742,12.9900895 L19.7543148,7.25064485 Z" id="path-1"></path>
  </defs>
  <g id="Icons/export/product/functinality" stroke="none" stroke-width="1" fill="none" fill-rule="evenodd">
    <mask id="mask-2" fill="white">
      <use xlink:href="#path-1"></use>
    </mask>
    <use id="Mask" fill="#27BCBC" xlink:href="#path-1"></use>
  </g>
</svg>
