<?xml version="1.0" encoding="UTF-8"?>
<svg preserveAspectRatio="xMidYMid slice" xmlns="http://www.w3.org/2000/svg" xmlns:xlink="http://www.w3.org/1999/xlink" width="68px" height="68px" viewBox="0 0 40 40" version="1.1">
  <title>Icons/export/product/latency_for_events</title>
  <g id="Icons/export/product/latency_for_events" stroke="none" stroke-width="1" fill="none" fill-rule="evenodd">
    <path d="M7.99851879,20.4070927 C8.02101887,20.8075941 8.05701899,21.2065954 8.11101917,21.6025968 C9.01102222,28.0481186 14.9900424,33.4751369 21.8690657,33.3011363 C27.881086,33.1481358 33.5391052,28.5641203 34.7826094,22.4950998 C36.0111135,16.4980795 32.6796023,9.86805709 26.9390828,7.3570486 C25.2365771,6.61154607 23.3810708,6.2350448 21.5150645,6.22904478 C21.5150645,6.22904478 20.3945607,6.04154415 20.1035597,5.23454142 C19.8110587,4.42153867 20.3690606,3.3970352 21.2630637,3.24253468 C21.4085641,3.21703459 21.4625643,3.21992576 21.6260649,3.21992576 C27.858586,3.28003481 33.8211061,7.08404767 36.4776151,12.6835666 C39.4566252,18.9655879 37.9911202,27.0941153 32.7171024,31.9466318 C28.5410883,35.7881447 22.3130672,37.2821498 16.7825485,35.6201442 C10.2560264,33.6611376 5.29100964,27.4676166 4.98650861,20.3755926 L4.53200707,20.8300942 C4.53200707,20.8300942 4.05500546,21.2770957 3.45350342,21.2710956 C2.32549961,21.2605956 1.48999678,19.6915903 2.36299974,18.7465871 C2.37649978,18.7315871 2.38999983,18.718087 2.40499988,18.703087 L5.41251005,15.6955768 C5.54301049,15.5695764 5.57151059,15.5545763 5.64051082,15.5080762 C5.82051143,15.3880758 6.02751213,15.3070755 6.24051285,15.2725754 C6.33801318,15.2575753 6.43701351,15.2530753 6.53601385,15.2560753 C6.86151495,15.2740754 7.12401584,15.3475756 7.40451678,15.5740764 C7.44201691,15.6055765 7.47951704,15.6370766 7.51551716,15.6715767 C7.52301719,15.6790767 7.53201722,15.6865768 7.53951724,15.6955768 L10.5485274,18.703087 C11.3540301,19.5415898 10.7960283,21.2080954 9.56002407,21.2695956 C9.14152266,21.2905957 8.72152124,21.1180951 8.42152022,20.8300942 L7.99851879,20.4070927 Z M21.6140648,9.23955496 C21.9035658,9.26805506 21.950066,9.29355514 22.0730664,9.34305531 C22.5710681,9.53955598 22.9445693,10.0165576 23.0120696,10.5535594 C23.0225696,10.6360597 23.0210696,10.6570598 23.0240696,10.74106 L23.0240696,19.1440885 L28.9655897,25.0856085 C28.9655897,25.0856085 29.8055925,26.4761133 28.8965895,27.277116 C28.3775877,27.7346175 27.5330849,27.7676176 26.979583,27.3371162 C26.9135828,27.286116 26.8985827,27.2696159 26.8370825,27.2126157 L20.4560609,20.8300942 C20.18306,20.5420932 20.0270595,20.1655919 20.0150594,19.7665906 L20.0150594,10.74106 C20.0240595,10.4515591 20.0480595,10.4035589 20.0885597,10.2760585 C20.2640603,9.73755665 20.765062,9.32055524 21.3305639,9.24855499 C21.5120645,9.22605492 21.5555646,9.23805496 21.6140648,9.23955496 Z" id="Mask" fill="#27BCBC"></path>
  </g>
</svg>
