<?xml version="1.0" encoding="UTF-8"?>
<svg preserveAspectRatio="xMidYMid slice" xmlns="http://www.w3.org/2000/svg" xmlns:xlink="http://www.w3.org/1999/xlink" width="34px" height="34px" viewBox="0 0 24 24" version="1.1">
  <title>Icons/export/solutions/retail</title>
  <g id="Icons/export/solutions/retail" stroke="none" stroke-width="1" fill="none" fill-rule="evenodd">
    <path d="M11.7602984,1.51736318 C10.0682294,1.51736318 8.6912037,2.88751522 8.6912037,4.57156495 L8.6912037,6.08892814 L14.829966,6.08892814 L14.829966,4.57156495 C14.829966,2.88751522 13.4529403,1.51736318 11.7602984,1.51736318 L11.7602984,1.51736318 Z M3.52162924,21.0632235 C3.48783369,21.4269553 3.61098698,21.7895415 3.86130322,22.0547507 C4.11849313,22.3302704 4.45644869,22.482064 4.81273404,22.482064 L18.4512457,22.482064 C18.8132591,22.482064 19.1512147,22.3296976 19.4043949,22.0541779 C19.6478375,21.7889687 19.770418,21.4275281 19.7423505,21.0632235 L18.6964067,7.60743693 L16.3479019,7.60743693 L16.3479019,10.4141865 C16.3479019,10.8329077 16.0076552,11.1731545 15.5895068,11.1731545 C15.1707855,11.1731545 14.829966,10.8329077 14.829966,10.4141865 L14.829966,7.60743693 L8.6912037,7.60743693 L8.6912037,10.4141865 C8.6912037,10.8329077 8.35038411,11.1731545 7.9316629,11.1731545 C7.51351449,11.1731545 7.17326771,10.8329077 7.17326771,10.4141865 L7.17326771,7.60743693 L4.56814587,7.60743693 L3.52162924,21.0632235 Z M4.81273404,24 C4.04460115,24 3.29250683,23.6649085 2.7489139,23.0806463 C2.21792271,22.5107043 1.94813107,21.7293969 2.0082757,20.9366333 L3.10806329,6.79577078 C3.13441236,6.3988162 3.46606706,6.08892814 3.86244883,6.08892814 L7.17326771,6.08892814 L7.17326771,4.57156495 C7.17326771,2.0506456 9.23078698,0 11.7602984,0 C14.2898099,0 16.3479019,2.0506456 16.3479019,4.57156495 L16.3479019,6.08892814 L19.4021037,6.08892814 C19.7933302,6.08892814 20.1255577,6.39938901 20.1564893,6.79577078 L21.255704,20.9480895 C21.3164215,21.7368434 21.0466298,22.5158596 20.5156386,23.0852288 C19.980065,23.6671997 19.2273979,24 18.4512457,24 L4.81273404,24 Z" id="retail" fill="#000000"></path>
  </g>
</svg>
