<?xml version="1.0" encoding="UTF-8"?>
<svg preserveAspectRatio="xMidYMid slice" xmlns="http://www.w3.org/2000/svg" xmlns:xlink="http://www.w3.org/1999/xlink" width="68px" height="68px" viewBox="0 0 40 40" version="1.1">
  <title>Icons/export/product/sensing</title>
  <g id="Icons/export/product/sensing" stroke="none" stroke-width="1" fill="none" fill-rule="evenodd">
    <path d="M9.23273715,7.5005 L1.85762836,7.5005 L1.7191244,7.50816041 C1.01273183,7.59582974 0.5002,8.17222443 0.5002,8.85792836 L0.506420972,8.98852893 C0.572270009,9.67621071 1.15271944,10.2141318 1.85762836,10.2141318 L7.875,10.214 L7.875,14.849 L1.85762836,14.8498859 L1.7191244,14.8575463 C1.01273183,14.9452157 0.5002,15.5216104 0.5002,16.2073143 C0.5002,16.9562553 1.10866263,17.5635178 1.85762836,17.5635178 L9.23273715,17.5635178 L9.37114564,17.5558839 L9.50975035,17.5320073 C10.1436312,17.3912631 10.5901655,16.8473517 10.5901655,16.2073143 L10.59,13.888 L15.224,13.888 L15.224,25.873 L10.59,25.873 L10.5901655,23.5567002 L10.5822961,23.4185601 C10.4925558,22.7177 9.9105385,22.1992719 9.23273715,22.1992719 L1.85762836,22.1992719 L1.7191244,22.2069323 C1.01273183,22.2946016 0.5002,22.8709963 0.5002,23.5567002 L0.506420972,23.6873008 C0.572270009,24.3749826 1.15271944,24.9129037 1.85762836,24.9129037 L7.875,24.912 L7.875,29.548 L1.85762836,29.5486578 L1.7191244,29.5563182 C1.01273183,29.6439876 0.5002,30.2203822 0.5002,30.9060862 C0.5002,31.6550271 1.10866263,32.2622896 1.85762836,32.2622896 L9.23273715,32.2622896 L9.37114564,32.2546558 L9.50975035,32.2307792 C10.1436312,32.090035 10.5901655,31.5461236 10.5901655,30.9060862 L10.59,28.587 L16.5821231,28.5875967 L16.7205316,28.5799628 L16.8591363,28.5560862 C17.4930172,28.4153421 17.9395514,27.8714306 17.9395514,27.2313932 L17.939,21.238 L22.06,21.238 L22.0608486,27.2313932 L22.0670695,27.3619938 C22.1329186,28.0496756 22.713368,28.5875967 23.4182769,28.5875967 L29.41,28.587 L29.4102345,30.9060862 C29.4102345,31.6550271 30.0186971,32.2622896 30.7676629,32.2622896 L38.1427716,32.2622896 C38.8917374,32.2622896 39.5002,31.6550271 39.5002,30.9060862 L39.4939789,30.7754715 C39.4281286,30.0876534 38.8476685,29.5486578 38.1427716,29.5486578 L32.125,29.548 L32.125,24.912 L38.1427716,24.9129037 C38.8917374,24.9129037 39.5002,24.3056412 39.5002,23.5567002 C39.5002,22.8077474 38.8917245,22.1992719 38.1427716,22.1992719 L30.7676629,22.1992719 L30.63834,22.2055678 C29.9565501,22.2721914 29.4102345,22.8590124 29.4102345,23.5567002 L29.41,25.873 L24.775,25.873 L24.775,13.888 L29.41,13.888 L29.4102345,16.2073143 C29.4102345,16.9562553 30.0186971,17.5635178 30.7676629,17.5635178 L38.1427716,17.5635178 C38.8917374,17.5635178 39.5002,16.9562553 39.5002,16.2073143 L39.4939789,16.0766996 C39.4281286,15.3888815 38.8476685,14.8498859 38.1427716,14.8498859 L32.125,14.849 L32.125,10.214 L38.1427716,10.2141318 C38.8917374,10.2141318 39.5002,9.60686931 39.5002,8.85792836 C39.5002,8.10897549 38.8917245,7.5005 38.1427716,7.5005 L30.7676629,7.5005 L30.63834,7.50679593 C29.9565501,7.57341955 29.4102345,8.16024052 29.4102345,8.85792836 L29.41,11.175 L23.4182769,11.175193 L23.288954,11.1814889 C22.6071641,11.2481125 22.0608486,11.8349335 22.0608486,12.5326213 L22.06,18.524 L17.939,18.524 L17.9395514,12.5326213 L17.931682,12.3944812 L17.9072877,12.2568411 C17.7639137,11.6268014 17.2147377,11.175193 16.5821231,11.175193 L10.59,11.175 L10.5901655,8.85792836 L10.5822961,8.71978822 C10.4925558,8.01892807 9.9105385,7.5005 9.23273715,7.5005 Z" id="Mask" fill="#27BCBC" fill-rule="nonzero"></path>
  </g>
</svg>
