<?xml version="1.0" encoding="UTF-8"?>
<svg preserveAspectRatio="xMidYMid slice" xmlns="http://www.w3.org/2000/svg" xmlns:xlink="http://www.w3.org/1999/xlink" width="68px" height="68px" viewBox="0 0 32 32" version="1.1">
  <title>Icons/login-page/support</title>
  <g id="Icons/login-page/support" stroke="none" stroke-width="1" fill="none" fill-rule="evenodd">
    <g id="Group-3-Copy-3" transform="translate(0.000000, 0.000000)" fill="#000000">
      <path d="M15.9556316,10.8395857 C13.6217326,10.8619196 11.4177765,12.6603112 10.9365812,14.9327919 C10.6315195,16.3773932 11.0446978,17.979855 12.0436351,19.2204051 C13.0339433,20.4502958 14.4602713,21.1609219 15.9566468,21.1705661 C18.4504368,21.1705661 20.7447438,19.1919801 21.1010721,16.7601161 C21.3081688,15.3469854 20.8614895,13.8663452 19.8752421,12.6988881 C18.9052375,11.5502118 17.5256077,10.8730866 16.0911582,10.8411084 L15.9571544,10.8395857 L15.9556316,10.8395857 Z M15.9251762,23.1440763 C15.0008547,23.1440763 14.1125721,22.9725108 13.2852003,22.6344558 C10.2980329,21.4137018 8.38695629,17.9651349 8.93515355,14.784068 C9.49604057,11.528893 12.5349822,8.92140285 15.8520833,8.8472947 L16.0378612,8.84577193 C19.3341511,8.87775011 22.4030406,11.4278826 23.0217928,14.651587 C23.4618734,16.9504624 22.664957,19.492981 20.990925,21.1279286 C19.6777895,22.4090859 17.8311769,23.1440763 15.9251762,23.1440763 L15.9251762,23.1440763 Z M8.94784331,22.0842282 C9.32853585,22.1091001 9.66354529,22.3755849 9.81226917,22.7623685 C9.88079383,22.9395175 9.99855473,23.3943182 9.61735459,23.7887156 L6.84235975,26.5637105 L7.06011588,26.7408594 C9.6422265,28.8458354 12.8598399,30.0051711 16.1200908,30.0051711 C16.9251287,30.0051711 17.7301665,29.9325857 18.5138855,29.7899529 C20.8117457,29.3716987 23.0258536,28.313881 24.9145962,26.7296924 L25.1267688,26.5515283 L22.3609106,23.7856701 C22.1000093,23.5166474 22.0355454,23.0689529 22.2020349,22.6750631 C22.2771582,22.4974065 22.5142028,22.0837206 23.0862568,22.0837206 C23.2075708,22.0908269 23.2278744,22.0948876 23.2689892,22.1040242 C23.4019778,22.1339721 23.5151704,22.1821931 23.6151656,22.2486874 C23.667955,22.2842187 23.6948572,22.3024919 23.7720109,22.3776153 L26.5378692,25.1424583 L26.7155257,24.9313009 C28.1926127,23.1796076 29.2179447,21.1279286 29.6808668,18.9990959 C30.5701646,14.9216249 29.4615879,10.4680298 26.7165409,7.08544961 L26.5393919,6.8666783 L23.7699806,9.63456688 C23.6121201,9.78735149 23.3857349,9.87313421 23.1360006,9.87313421 C22.6446534,9.87313421 22.0979789,9.53203369 22.0700615,8.9802833 C22.0568641,8.70516949 22.1629505,8.4290405 22.3634485,8.22346652 L25.1491028,5.43781229 L24.9404833,5.25964818 C24.0354502,4.48608093 23.0415888,3.83991879 21.9852939,3.3389274 C20.1051804,2.44658408 18.0819264,1.99381375 15.9728897,1.99381375 C12.7857317,2.00904145 9.63359747,3.17497581 7.06823732,5.27842901 L6.85149637,5.45608553 L9.62040013,8.22600447 C9.83257278,8.44528338 9.92089345,8.78181559 9.85439915,9.12393128 C9.79095039,9.45335723 9.59095991,9.72187237 9.31939923,9.84217122 C9.19910038,9.89546817 9.06864974,9.92186286 8.93109283,9.92237045 C8.66156251,9.92237045 8.39710809,9.81628412 8.20726941,9.63202893 L5.42719867,6.85246578 L5.24852697,7.0605777 C4.41404891,8.03718097 3.7303251,9.10718081 3.21715156,10.2416446 C1.43551045,14.1780055 1.62484155,18.9721936 3.71154427,22.7547547 C4.13538197,23.525784 4.6495707,24.2678807 5.23837517,24.9607411 L5.41653928,25.1703758 L8.20980736,22.3755849 C8.27274853,22.3141665 8.29203695,22.299954 8.32198476,22.2786352 C8.50471719,22.1481846 8.64938035,22.0837206 8.93616873,22.0837206 L8.94784331,22.0842282 Z M16.0886202,32 C12.0893182,32 8.13163849,30.4878892 5.23076131,27.8509589 C2.77199508,25.6160398 1.0350219,22.6060308 0.340638699,19.3747125 C-0.948132457,13.3714449 1.49388331,6.86414035 6.4159841,3.18157448 C9.09504442,1.17862411 12.4222972,0.0487286455 15.7840662,0.00101518012 L16.0429371,0 C20.4960247,0.0208111924 24.9293163,2.00853386 27.8997333,5.31700585 C31.2513504,9.04779278 32.6883379,14.4155576 31.6498086,19.3259839 C31.037655,22.2248307 29.5661514,24.9282553 27.3962039,27.1449011 L27.3779307,27.1636819 L27.3637182,27.1860159 C27.283519,27.3118982 27.1774326,27.417477 27.0576414,27.4915851 L27.0342922,27.5057976 L27.0150038,27.5240709 C24.7272954,29.7163523 21.9451943,31.1721206 18.9686862,31.7335152 C18.0296446,31.9106641 17.0611628,32 16.0886202,32 L16.0886202,32 Z" id="Fill-1"></path>
    </g>
  </g>
</svg>
