<?xml version="1.0" encoding="UTF-8"?>
<svg preserveAspectRatio="xMidYMid slice" xmlns="http://www.w3.org/2000/svg" xmlns:xlink="http://www.w3.org/1999/xlink" width="34px" height="34px" viewBox="0 0 40 40" version="1.1">
  <title>Icons/export/product/Bluetooth_radio</title>
  <g id="Icons/export/product/Bluetooth_radio" stroke="none" stroke-width="1" fill="none" fill-rule="evenodd">
    <path d="M20.4220958,5.16676019 C21.0462159,4.54264014 22.0603285,4.54225114 22.6848375,5.16676019 C31.1068028,13.5887255 31.1065054,27.2921053 22.6838947,35.7147159 C22.0601337,36.3384769 21.0460213,36.3376986 20.4220958,35.7137731 C19.7975045,35.0891818 19.7971156,34.0760117 20.421153,33.4519742 C27.5951407,26.2779866 27.5954265,14.6028326 20.4220958,7.42950189 C19.7975868,6.80499284 19.7979758,5.79088025 20.4220958,5.16676019 Z M14.7658073,10.8241801 C15.3897327,10.2002546 16.4038452,10.1994764 17.0276061,10.8232373 C22.3304398,16.126071 22.3298382,24.7543097 17.0266633,30.0574846 C16.4026259,30.681522 15.3894558,30.6811331 14.7648644,30.0565418 C14.1410214,29.4326988 14.1410214,28.4195287 14.7648644,27.7956857 C18.8201827,23.7403674 18.8201827,17.1412973 14.7648644,13.085979 C14.1411035,12.4622181 14.1418818,11.4481056 14.7658073,10.8241801 Z M9.10838732,16.4804687 C9.73242475,15.8564313 10.7455949,15.8568202 11.3701862,16.4814115 C13.5535925,18.6648178 13.5532782,22.2160299 11.3692434,24.4000646 C10.7454004,25.0239076 9.73223032,25.0239076 9.10838732,24.4000646 C8.52116334,23.8128407 8.48593133,22.8799839 9.00385187,22.2522344 L9.10744451,22.1382658 C10.0012625,21.2444477 10.0421187,19.81614 9.23017988,18.8743343 L9.10838732,18.7432104 C8.48387827,18.1187013 8.48426726,17.1045887 9.10838732,16.4804687 Z" id="Mask" fill="#27BCBC" fill-rule="nonzero"></path>
  </g>
</svg>
