<?xml version="1.0" encoding="UTF-8"?>
<svg preserveAspectRatio="xMidYMid slice" xmlns="http://www.w3.org/2000/svg" xmlns:xlink="http://www.w3.org/1999/xlink" width="34px" height="34px" viewBox="0 0 40 40" version="1.1">
  <title>Icons/export/product/self_powered_management</title>
  <g id="Icons/export/product/self_powered_management" stroke="none" stroke-width="1" fill="none" fill-rule="evenodd">
    <path d="M25.907,0.5 C26.6361889,0.5 27.2453267,1.06026592 27.3144668,1.76605955 L27.321,1.9 L27.321,6.52 L28.921,6.521 C31.2044281,6.521 33.0872165,8.26946904 33.3008198,10.4978619 L33.3159162,10.7081411 L33.321,10.921 L33.321,12.52 L37.921,12.521 C38.6163974,12.521 39.1909378,13.0059196 39.3164989,13.6538823 L39.3355275,13.7855533 L39.342,13.921 C39.342,14.6401928 38.778749,15.2457493 38.0754137,15.3145027 L37.942,15.321 L33.321,15.321 L33.321,19.921 C33.321,20.609309 32.8298775,21.1892699 32.1859285,21.3162046 L32.0552012,21.335449 L31.921,21.342 C31.1942778,21.342 30.5953649,20.7858355 30.5274191,20.0766642 L30.521,19.942 L30.521,10.921 C30.521,10.0692456 29.8982742,9.39920013 29.0693386,9.3273795 L28.921,9.321 L10.921,9.321 C10.0692456,9.321 9.39920013,9.94372576 9.3273795,10.7726614 L9.321,10.921 L9.321,28.921 C9.321,29.7727544 9.94372576,30.4427999 10.7726614,30.5146205 L10.921,30.521 L28.921,30.521 C29.7727544,30.521 30.4427999,29.8982742 30.5146205,29.0693386 L30.521,28.921 L30.5242662,26.2300573 L30.5076982,26.0739017 L30.5007401,25.9676258 C30.5002275,25.9519022 30.5,25.9366312 30.5,25.921 C30.5,25.5444936 30.6511419,25.1881428 30.9164987,24.9274053 C31.1885928,24.652288 31.5437964,24.5 31.921,24.5 L32.0273927,24.5041681 C32.0419111,24.5054044 32.0540085,24.5068352 32.0624641,24.5083455 L32.0756842,24.5130005 L37.921,24.521 C38.7091171,24.521 39.342,25.1438523 39.342,25.921 C39.342,26.6401928 38.778749,27.2457493 38.0754137,27.3145027 L37.942,27.321 L33.321,27.32 L33.321,28.921 C33.321,31.2044281 31.572531,33.0872165 29.3441381,33.3008198 L29.1338589,33.3159162 L28.921,33.321 L27.321,33.321 L27.321,37.921 C27.321,38.609309 26.8298775,39.1892699 26.1859285,39.3162046 L26.0552012,39.335449 L25.921,39.342 C25.1942778,39.342 24.5953649,38.7858355 24.5274191,38.0766642 L24.521,37.942 L24.521,33.321 L15.321,33.321 L15.321,37.921 C15.321,38.609309 14.8298775,39.1892699 14.1859285,39.3162046 L14.0552012,39.335449 L13.921,39.342 C13.1942778,39.342 12.5953649,38.7858355 12.5274191,38.0766642 L12.521,37.942 L12.521,33.321 L10.921,33.321 C8.63757188,33.321 6.75478354,31.572531 6.54118017,29.3441381 L6.52608375,29.1338589 L6.521,28.921 L6.521,27.32 L1.921,27.321 C1.22560257,27.321 0.651062195,26.8360804 0.525501104,26.1881177 L0.506472497,26.0564467 L0.5,25.921 C0.5,25.1942778 1.05616454,24.5953649 1.76533577,24.5274191 L1.9,24.521 L6.521,24.52 L6.521,15.321 L1.921,15.321 C1.22560257,15.321 0.651062195,14.8360804 0.525501104,14.1881177 L0.506472497,14.0564467 L0.5,13.921 C0.5,13.1942778 1.05616454,12.5953649 1.76533577,12.5274191 L1.9,12.521 L6.521,12.52 L6.521,10.921 C6.521,8.63757188 8.26946904,6.75478354 10.4978619,6.54118017 L10.7081411,6.52608375 L10.921,6.521 L12.521,6.52 L12.5210498,1.92805575 C12.511468,1.24911575 12.9959599,0.666331387 13.6411456,0.529925394 L13.7722266,0.508699676 L13.907,0.5 C14.6361889,0.5 15.2453267,1.06026592 15.3144668,1.76605955 L15.321,1.9 L15.321,6.52 L24.521,6.52 L24.5210498,1.92805575 C24.511468,1.24911575 24.9959599,0.666331387 25.6355041,0.529971728 L25.7653798,0.508755909 L25.907,0.5 Z M25.921,21.521 C26.7091171,21.521 27.342,22.1438523 27.342,22.921 C27.342,23.6401928 26.778749,24.2457493 26.0754137,24.3145027 L25.942,24.321 L13.921,24.321 C13.1328829,24.321 12.5,23.6981477 12.5,22.921 C12.5,22.1942778 13.0561645,21.5953649 13.7653358,21.5274191 L13.9,21.521 L25.921,21.521 Z M22.921,15.521 C23.7091171,15.521 24.342,16.1438523 24.342,16.921 C24.342,17.6401928 23.778749,18.2457493 23.0754137,18.3145027 L22.942,18.321 L16.921,18.321 C16.1328829,18.321 15.5,17.6981477 15.5,16.921 C15.5,16.1942778 16.0561645,15.5953649 16.7653358,15.5274191 L16.9,15.521 L22.921,15.521 Z" id="Mask" fill="#27BCBC" fill-rule="nonzero"></path>
  </g>
</svg>
