<?xml version="1.0" encoding="UTF-8"?>
<svg preserveAspectRatio="xMidYMid slice" xmlns="http://www.w3.org/2000/svg" xmlns:xlink="http://www.w3.org/1999/xlink" width="68px" height="68px" viewBox="0 0 32 32" version="1.1">
  <title>Icons/export/login-page/academy Copy</title>
  <g id="Icons/export/login-page/academy-Copy" stroke="none" stroke-width="1" fill="none" fill-rule="evenodd">
    <path d="M30.58655,20.6738094 L30.58655,11.3581556 C31.5379108,10.4987065 31.2763719,9.40959531 29.7005739,8.68175927 L19.0663659,3.6607081 C18.1150051,3.198741 16.8340947,3 15.5864019,3 C14.3387091,3 13.059243,3.23099016 12.1064379,3.6607081 L1.44006443,8.64971493 C-0.463970126,9.54140658 -0.496006014,11.0279998 1.44006443,11.9196914 L4.95186899,13.5714617 L4.95186899,21.1359087 L4.98520469,21.432712 C5.11598727,21.8624365 6.39688448,25.5621376 15.5540936,25.5621376 C24.711237,25.5621376 26.0241833,21.8625026 26.1229825,21.432712 L26.1883738,13.5712767 L28.3219114,12.5802145 L28.3219114,20.7075848 C27.8295566,21.3682929 26.8781957,22.7890796 26.8781957,24.4729603 C26.8781957,26.7518746 28.5527273,28.5366454 28.6181121,28.636082 C28.815566,28.8670721 29.1104669,29 29.4387034,29 C29.7336043,29 30.0297918,28.8683737 30.2592948,28.636082 C30.3246861,28.5702688 31.9992112,26.7855707 31.9992112,24.4729603 C32.0312635,22.7231079 31.0786061,21.3023212 30.5862513,20.6738887 L30.58655,20.6738094 Z M23.9564998,20.906088 C23.6615989,21.401619 22.0524651,23.3179368 15.5864676,23.3179368 C9.02173642,23.3179368 7.47935284,21.3358125 7.21643536,20.906088 L7.21643536,14.6293611 L12.1065036,16.9082754 C13.0578644,17.3702425 14.3387748,17.5689835 15.5864676,17.5689835 C16.8341604,17.5689835 18.1136265,17.3379934 19.0664315,16.9082754 L23.9564998,14.6293611 L23.9564998,20.906088 Z M18.1135608,14.8926532 C17.4904365,15.1894565 16.5377627,15.3546203 15.5864019,15.3546203 C14.6350411,15.3546203 13.6823673,15.1894433 13.059243,14.8926532 L3.27746538,10.3013927 L13.059243,5.71013211 C13.6823673,5.41332882 14.6350411,5.24816501 15.5864019,5.24816501 C16.5377627,5.24816501 17.4904365,5.41334203 18.1135608,5.71013211 L27.8631713,10.3013927 L18.1135608,14.8926532 Z M29.4712021,25.7943368 C29.3070839,25.3981762 29.1429656,24.9348877 29.1429656,24.4729206 C29.1429656,24.0109535 29.2737482,23.547665 29.4712021,23.1515044 C29.6353204,23.547665 29.7994387,24.0109535 29.7994387,24.4729206 C29.766103,24.9361761 29.6353204,25.3981762 29.4712021,25.7943368 Z" id="Fill-1" fill="#27bcbc"></path>
  </g>
</svg>
