<?xml version="1.0" encoding="UTF-8"?>
<svg preserveAspectRatio="xMidYMid slice" xmlns="http://www.w3.org/2000/svg" xmlns:xlink="http://www.w3.org/1999/xlink" width="34px" height="34px" viewBox="0 0 40 40" version="1.1">
  <title>Icons/export/product/printed_electronics_integration</title>
  <g id="Icons/export/product/printed_electronics_integration" stroke="none" stroke-width="1" fill="none" fill-rule="evenodd">
    <path d="M33.5060947,3.65 C34.143232,3.65 34.6846331,4.09353436 34.8247408,4.72441725 L34.8485103,4.86238066 L34.8560947,5.00009709 L34.855,9.65 L36.5060947,9.65 C37.0977222,9.65 37.6068016,10.0324352 37.7886868,10.592189 L37.8247408,10.7244172 L37.8485103,10.8623807 L37.8560947,11 L37.8560947,29 C37.8560947,29.6371373 37.4125604,30.1785384 36.7816775,30.3186461 L36.6437141,30.3424155 L36.5060947,30.35 L29.855,30.35 L29.8560947,34 C29.8560947,34.5916275 29.4736595,35.1007069 28.9139057,35.2825921 L28.7816775,35.3186461 L28.6437141,35.3424155 L28.5060947,35.35 L13.5060947,35.35 C12.8689575,35.35 12.3275563,34.9064656 12.1874487,34.2755828 L12.1636792,34.1376193 L12.1560947,34 L12.1560947,26 C12.1560947,25.3628627 12.5996291,24.8214616 13.230512,24.6813539 L13.3684754,24.6575845 L13.5060947,24.65 L22.5060947,24.65 C23.2516791,24.65 23.8560947,25.2544156 23.8560947,26 C23.8560947,26.6371373 23.4125604,27.1785384 22.7816775,27.3186461 L22.6437141,27.3424155 L22.5060947,27.35 L14.855,27.35 L14.855,32.65 L27.156,32.65 L27.1560947,29 C27.1560947,28.4083725 27.53853,27.8992931 28.0982837,27.7174079 L28.230512,27.6813539 L28.3684754,27.6575845 L28.5060947,27.65 L35.155,27.65 L35.155,12.35 L33.5060947,12.35 C32.9144673,12.35 32.4053878,11.9675648 32.2235026,11.407811 L32.1874487,11.2755828 L32.1636792,11.1376193 L32.1560947,11.0000092 L32.156,6.35 L6.855,6.35 L6.855,9.65 L27.5060947,9.65 C28.1639633,9.65 28.7119254,10.1205658 28.8317522,10.7434686 L28.8499148,10.869986 L28.8560947,11 C28.8560947,11.6371373 28.4125604,12.1785384 27.7816775,12.3186461 L27.6437141,12.3424155 L27.5060947,12.35 L3.855,12.35 L3.855,27.65 L8.50609472,27.65 C9.09772218,27.65 9.60680165,28.0324352 9.78868683,28.592189 L9.8247408,28.7244172 L9.84851027,28.8623807 L9.85609472,29 C9.85609472,29.6371373 9.41256036,30.1785384 8.78167747,30.3186461 L8.64371407,30.3424155 L8.50609472,30.35 L2.50609472,30.35 C1.86895746,30.35 1.32755633,29.9064656 1.18744865,29.2755828 L1.16367918,29.1376193 L1.15609472,29 L1.15609472,11 C1.15609472,10.3628627 1.59962908,9.82146161 2.23051197,9.68135393 L2.36847538,9.65758445 L2.50609472,9.65 L4.155,9.65 L4.15609472,5 C4.15609472,4.40837254 4.53852996,3.89929308 5.09828372,3.71740789 L5.23051197,3.68135393 L5.36847538,3.65758445 L5.50609472,3.65 L33.5060947,3.65 Z M27.7560947,17.5 C28.722593,17.5 29.5060947,18.2835017 29.5060947,19.25 C29.5060947,20.2164983 28.722593,21 27.7560947,21 C26.7895964,21 26.0060947,20.2164983 26.0060947,19.25 C26.0060947,18.2835017 26.7895964,17.5 27.7560947,17.5 Z" id="Mask" fill="#27BCBC" fill-rule="nonzero"></path>
  </g>
</svg>
