<?xml version="1.0" encoding="UTF-8"?>
<svg preserveAspectRatio="xMidYMid slice" xmlns="http://www.w3.org/2000/svg" xmlns:xlink="http://www.w3.org/1999/xlink" width="34px" height="34px" viewBox="0 0 40 40" version="1.1">
  <title>Icons/export/product/cpu_core</title>
  <g id="Icons/export/product/cpu_core" stroke="none" stroke-width="1" fill="none" fill-rule="evenodd">
    <path d="M22.2095778,5.999081 L24.365337,6.0008223 C27.0138667,6.00369411 29.2947111,6.00911967 30.5727778,6.017353 C32.8827778,6.061353 34.9707778,8.027353 35.0157778,10.460353 C35.0657778,18.478353 35.0157778,26.495353 35.0157778,34.514353 C35.0007778,36.852353 32.9907778,38.963353 30.5727778,39.008353 C29.7024278,39.013553 28.3622578,39.0166405 26.7557649,39.0181647 L25.6035298,39.018977 L25.4042709,39.0190667 L25.4042709,39.0190667 L22.2296448,39.019045 L22.0087721,39.0189667 L22.0087721,39.0189667 L20.4451538,39.018209 C20.2952108,39.018121 20.1450824,39.0180289 19.9948613,39.017933 L19.0931621,39.0173149 C18.9429403,39.0172052 18.792811,39.0170925 18.6428668,39.016977 L17.7461629,39.0162538 C17.5973293,39.0161286 17.4488661,39.0160014 17.3008657,39.0158725 L16.4191589,39.0150812 C15.9818237,39.014678 15.5503215,39.0142655 15.1271528,39.013853 L14.2926674,39.0130307 C13.8817212,39.0126224 13.4807754,39.0122202 13.0923305,39.0118335 L12.3328494,39.0110834 L12.1487087,39.0109043 L12.1487087,39.0109043 L11.2658559,39.0100717 L11.0973417,39.0099197 L11.0973417,39.0099197 L10.0013617,39.0090213 L9.85757224,39.0089197 L9.85757224,39.0089197 L8.51577778,39.008353 C6.19077778,38.993353 4.06877778,37.019353 4.02177778,34.565353 C3.97277778,26.548353 4.02177778,18.529353 4.02177778,10.511353 C4.03677778,8.174353 6.04677778,6.062353 8.46477778,6.017353 C9.74284444,6.00911967 12.0236889,6.00369411 14.6722185,6.0008223 L16.8279778,5.999081 L17.0492829,5.99896416 L17.0492829,5.99896416 L21.7662037,5.99885763 C21.9144889,5.99892522 22.0623111,5.99899967 22.2095778,5.999081 Z M21.7789262,7.79891986 L17.2585492,7.79891986 L17.0397443,7.7990366 L17.0397443,7.7990366 L15.968434,7.79977487 C15.8282426,7.79989011 15.6891533,7.80001194 15.5512164,7.8001402 L14.7378296,7.80098584 C11.9422084,7.80420749 9.69937153,7.81013425 8.47677778,7.817353 C7.10677778,7.843353 5.83077778,9.133353 5.82177778,10.523353 C5.82177778,13.185353 5.81677778,15.859353 5.81077778,18.533353 C5.79977778,23.785353 5.78877778,29.217353 5.82177778,34.554353 C5.84773932,35.8947376 7.01737689,37.1029107 8.36524045,37.2018652 L8.52777778,37.208353 L13.6137778,37.212353 C15.6170505,37.2142621 17.9086538,37.2165761 20.1708424,37.2180066 L22.0952466,37.2189864 L22.7258276,37.2191856 L22.7258276,37.2191856 L25.2009553,37.2191438 C25.3354228,37.2190965 25.4686878,37.219041 25.6006578,37.218977 L26.7509253,37.2181647 C28.3547028,37.2166405 29.6927278,37.213553 30.5617778,37.208353 C31.9317778,37.183353 33.2067778,35.893353 33.2157778,34.503353 C33.2157778,31.840353 33.2217778,29.166353 33.2267778,26.492353 C33.2377778,21.240353 33.2487778,15.809353 33.2157778,10.472353 C33.1907778,9.094353 31.9397778,7.843353 30.5397778,7.817353 C29.3309653,7.81013425 27.0928657,7.80420749 24.298873,7.80098584 L23.4858719,7.8001402 L23.2781822,7.79995265 L23.2781822,7.79995265 L22.2150139,7.79916379 C22.0706392,7.79907553 21.9252597,7.79899417 21.7789262,7.79891986 Z M19.9267778,12.516553 C20.1647778,12.535553 20.1967778,12.552553 20.3347778,12.619553 C20.7157778,12.807553 20.9537778,13.283553 20.8777778,13.692553 C20.8697778,13.732553 20.8644444,13.7534419 20.8561481,13.78159 L20.8407778,13.832553 L18.2817778,21.513553 L22.8267778,21.509553 C23.0257778,21.536553 23.5847778,21.687553 23.7747778,22.043553 C23.8797778,22.241553 23.9157778,22.479553 23.8747778,22.699553 C23.8687778,22.7302197 23.8641111,22.7484419 23.856037,22.7767382 L23.8407778,22.829553 L20.8457778,31.810553 C20.7487778,32.073553 20.7147778,32.105553 20.5897778,32.227553 C20.3657778,32.444553 19.9917778,32.526553 19.6367778,32.433553 C19.4707778,32.390553 19.0697778,32.242553 18.9357778,31.799553 C18.8824028,31.624553 18.8573559,31.5398967 18.9149008,31.3050823 L18.9447778,31.194553 L21.5037778,23.513553 L20.8107778,23.513553 L16.9607778,23.517553 C16.7617778,23.490553 16.2017778,23.339553 16.0107778,22.983553 C15.9267778,22.825953 15.8869378,22.641473 15.8958658,22.461345 L15.9117778,22.327553 L18.9397778,13.214553 C19.0967778,12.791553 19.5217778,12.558553 19.9267778,12.516553 Z M25,1.5 C25.5522847,1.5 26,1.94771525 26,2.5 C26,3.01283584 25.6139598,3.43550716 25.1166211,3.49327227 L25,3.5 L15,3.5 C14.4477153,3.5 14,3.05228475 14,2.5 C14,1.98716416 14.3860402,1.56449284 14.8833789,1.50672773 L15,1.5 L25,1.5 Z" id="Combined-Shape" stroke="#27BCBC" fill="#27BCBC"></path>
  </g>
</svg>
