<?xml version="1.0" encoding="UTF-8"?>
<svg preserveAspectRatio="xMidYMid slice" xmlns="http://www.w3.org/2000/svg" xmlns:xlink="http://www.w3.org/1999/xlink" width="68px" height="68px" viewBox="0 0 40 40" version="1.1">
  <title>Icons/export/product/safty</title>
  <g id="Icons/export/product/safty" stroke="none" stroke-width="1" fill="none" fill-rule="evenodd">
    <path d="M19.4996246,0.5 C23.5963576,0.5 26.9295982,3.82069283 26.9295982,7.90367131 C26.9295982,9.00184141 26.2164048,9.50155369 25.5535104,9.50155369 C25.1991659,9.50155369 24.8725984,9.36316032 24.6323648,9.11255611 C24.3553455,8.8267925 24.2089531,8.40862009 24.2089531,7.90367131 C24.2089531,5.31683738 22.0956485,3.211762 19.4996246,3.211762 C16.90285,3.211762 14.7902961,5.31683738 14.7902961,7.90367131 L14.7902961,7.90367131 L14.7902961,12.5963287 L28.6037258,12.5963287 C31.0278326,12.5963287 33,14.5607665 33,16.9762919 L33,16.9762919 L33,35.1207849 C33,37.5355622 31.0278326,39.5 28.6037258,39.5 L28.6037258,39.5 L10.3947727,39.5 C7.97141666,39.5 6,37.5355622 6,35.1207849 L6,35.1207849 L6,16.9762919 C6,14.5607665 7.97141666,12.5963287 10.3947727,12.5963287 L10.3947727,12.5963287 L12.069651,12.5963287 L12.069651,7.90367131 C12.069651,3.82069283 15.402141,0.5 19.4996246,0.5 Z M28.6037258,15.3080907 L10.3947727,15.3080907 C9.47212568,15.3080907 8.72064507,16.056911 8.72064507,16.9762919 L8.72064507,16.9762919 L8.72064507,35.1207849 C8.72064507,36.0401657 9.47212568,36.7889861 10.3947727,36.7889861 L10.3947727,36.7889861 L28.6037258,36.7889861 C29.5271236,36.7889861 30.2786042,36.0401657 30.2786042,35.1207849 L30.2786042,35.1207849 L30.2786042,16.9762919 C30.2786042,16.056911 29.5271236,15.3080907 28.6037258,15.3080907 L28.6037258,15.3080907 Z M19.5003843,21.5 C21.9823213,21.5 24,23.518275 24,25.9992314 C24,28.4809564 21.9823213,30.5 19.5003843,30.5 C17.0184473,30.5 15,28.4809564 15,25.9992314 C15,23.518275 17.0184473,21.5 19.5003843,21.5 Z M19.5003843,24.2860803 C18.5557264,24.2860803 17.7863182,25.0546541 17.7863182,25.9992314 C17.7863182,26.9445773 18.5557264,27.7139197 19.5003843,27.7139197 C20.4450423,27.7139197 21.2136818,26.9445773 21.2136818,25.9992314 C21.2136818,25.0546541 20.4450423,24.2860803 19.5003843,24.2860803 Z" id="Combined-Shape" fill="#27BCBC"></path>
  </g>
</svg>
