<?xml version="1.0" encoding="UTF-8"?>
<svg preserveAspectRatio="xMidYMid slice" xmlns="http://www.w3.org/2000/svg" xmlns:xlink="http://www.w3.org/1999/xlink" width="68px" height="68px" viewBox="0 0 24 24" version="1.1">
  <title>infrastructure</title>
  <g id="infrastructure" stroke="none" stroke-width="1" fill="none" fill-rule="evenodd">
    <path d="M13.3194082,13.8870045 L13.3194082,9.24243518 C13.3194082,8.90942832 13.5987815,8.62900149 13.9286336,8.62900149 L18.5413403,8.62900149 L18.5413403,6.61343368 C18.5413403,6.28042683 18.8207137,6 19.1505657,6 L24.3907746,6 C24.7267189,6 25,6.27516882 25,6.61343368 C25,6.95169854 24.7267189,7.22599103 24.3907746,7.22599103 L19.7597911,7.22599103 L19.7597911,11.258003 L24.3907746,11.258003 C24.7267189,11.258003 25,11.5331718 25,11.8714367 C25,12.2097015 24.7267189,12.483994 24.3907746,12.483994 L19.1505657,12.483994 C18.8146214,12.483994 18.5413403,12.2097015 18.5413403,11.8714367 L18.5413403,9.85499253 L14.537859,9.85499253 L14.537859,19.1450075 L18.5413403,19.1450075 L18.5413403,17.1294397 C18.5413403,16.7964328 18.8207137,16.516006 19.1505657,16.516006 L24.3907746,16.516006 C24.7267189,16.516006 25,16.7911748 25,17.1294397 C25,17.4677045 24.7267189,17.741997 24.3907746,17.741997 L19.7597911,17.741997 L19.7597911,21.774009 L24.3907746,21.774009 C24.7267189,21.774009 25,22.0491778 25,22.3874427 C25,22.7257075 24.7267189,23 24.3907746,23 L19.1505657,23 C18.8146214,23 18.5413403,22.7257075 18.5413403,22.3874427 L18.5413403,20.3709985 L13.9286336,20.3709985 C13.5926893,20.3709985 13.3194082,20.096706 13.3194082,19.7584412 L13.3194082,15.1129955 L9.68059182,15.1129955 L9.68059182,19.7584412 C9.68059182,20.096706 9.4073107,20.3709985 9.07136641,20.3709985 L9.07136641,20.3709985 L4.4586597,20.3709985 L4.4586597,22.3874427 C4.4586597,22.7257075 4.18537859,23 3.84943429,23 L3.84943429,23 L-1.39077459,23 C-1.72671889,23 -2,22.7257075 -2,22.3874427 C-2,22.0491778 -1.72671889,21.774009 -1.39077459,21.774009 L-1.39077459,21.774009 L3.24020888,21.774009 L3.24020888,17.741997 L-1.39077459,17.741997 C-1.72671889,17.741997 -2,17.4677045 -2,17.1294397 C-2,16.7911748 -1.72671889,16.516006 -1.39077459,16.516006 L-1.39077459,16.516006 L3.84943429,16.516006 C4.17928634,16.516006 4.4586597,16.7964328 4.4586597,17.1294397 L4.4586597,17.1294397 L4.4586597,19.1450075 L8.46214099,19.1450075 L8.46214099,9.85499253 L4.4586597,9.85499253 L4.4586597,11.8714367 C4.4586597,12.2097015 4.18537859,12.483994 3.84943429,12.483994 L3.84943429,12.483994 L-1.39077459,12.483994 C-1.72671889,12.483994 -2,12.2097015 -2,11.8714367 C-2,11.5331718 -1.72671889,11.258003 -1.39077459,11.258003 L-1.39077459,11.258003 L3.24020888,11.258003 L3.24020888,7.22599103 L-1.39077459,7.22599103 C-1.72671889,7.22599103 -2,6.95169854 -2,6.61343368 C-2,6.27516882 -1.72671889,6 -1.39077459,6 L-1.39077459,6 L3.84943429,6 C4.17928634,6 4.4586597,6.28042683 4.4586597,6.61343368 L4.4586597,6.61343368 L4.4586597,8.62900149 L9.07136641,8.62900149 C9.40121845,8.62900149 9.68059182,8.90942832 9.68059182,9.24243518 L9.68059182,9.24243518 L9.68059182,13.8870045 L13.3194082,13.8870045 Z" stroke="#000000" stroke-width="0.715434328" fill="#000000"></path>
  </g>
</svg>
