<?xml version="1.0" encoding="UTF-8"?>
<svg preserveAspectRatio="xMidYMid slice" xmlns="http://www.w3.org/2000/svg" xmlns:xlink="http://www.w3.org/1999/xlink" width="68px" height="68px" viewBox="0 0 40 40" version="1.1">
  <title>Icons/export/product/family_of_events</title>
  <defs>
    <path d="M25.2126028,31.4883365 C25.4583322,30.7511482 25.880245,30.0742331 26.4783412,29.5472285 C27.3020757,28.8208585 28.379267,28.4097639 29.4920041,28.3912183 C29.5476409,28.3896728 29.5476409,28.3896728 29.6032778,28.3912183 C31.6201137,28.4267641 33.5395852,29.8980498 34.0480442,31.8777945 C34.4514114,33.4510811 33.9831345,35.2484605 32.796215,36.3581067 C32.7513964,36.4013798 32.7034869,36.4400165 32.6540319,36.4771077 C31.6896598,37.1833867 29.9649173,36.3040153 30.2152832,34.9470942 C30.3281024,34.3350888 30.9385623,33.9579946 31.0637452,33.3521711 C31.317202,32.1235239 29.6140961,30.8361489 28.4812679,31.9133402 C27.8847172,32.480527 27.847626,33.5190816 28.4596314,34.1388144 C28.4596314,34.1388144 29.1025461,35.0181858 28.7980889,35.7940108 C28.3916308,36.8310199 26.877072,37.0597492 26.0193371,36.0613768 C25.6468793,35.6286457 25.3733314,35.1248231 25.1971481,34.5854547 L4.7629681,34.5854547 C4.3843284,34.5715455 4.2823275,34.5251814 4.09068945,34.4324533 C3.20204526,34.0043587 2.9284974,32.6258011 3.70895882,31.9009765 C3.99177949,31.6382469 4.37351012,31.5022457 4.7629681,31.4883365 L25.2126028,31.4883365 L25.2126028,31.4883365 Z M15.3355158,22.193891 C15.1036955,22.8677151 14.7219649,23.4843569 14.207324,23.966543 C14.1625054,24.0082706 14.1145959,24.0484528 14.0651409,24.0839986 C13.1007688,24.791823 11.3775718,23.9000878 11.6263922,22.5539851 C11.7392114,21.9435252 12.3512168,21.5648855 12.4748542,20.9606074 C12.7035835,19.8478703 11.342026,18.6563144 10.2045615,19.2899563 C9.37619055,19.7520513 9.1551886,21.0224261 9.87074036,21.7472507 C9.87074036,21.7472507 10.3266535,22.240255 10.3173807,22.8599878 C10.2957441,24.134999 8.50300104,24.9185514 7.43044614,23.6698131 C5.87106877,21.8523425 6.04107027,18.7830428 7.88945018,17.1556648 C8.71318471,16.4292948 9.79037601,16.0182002 10.9031131,15.9981092 C10.9587499,15.9981092 10.9587499,15.9981092 11.0143868,15.9981092 C12.896767,16.0321095 14.6956919,17.314848 15.3386067,19.0952273 L35.7434228,19.0952273 C35.7820595,19.0967728 35.8206962,19.0983183 35.8593329,19.0998637 C36.2348817,19.1415914 36.3337916,19.1972282 36.5177023,19.3023201 C37.3491642,19.7829607 37.5145293,21.1136088 36.7974321,21.7797055 C36.5146114,22.0424351 36.1328808,22.1784363 35.7434228,22.193891 L15.3355158,22.193891 L15.3355158,22.193891 Z M25.2126028,6.70366366 C25.4583322,5.96647534 25.880245,5.28956029 26.4783412,4.76255565 C27.3020757,4.03618562 28.379267,3.62509109 29.4920041,3.605 C29.5476409,3.605 29.5476409,3.605 29.6032778,3.605 C31.6201137,3.64209124 33.5395852,5.11337692 34.0480442,7.09312163 C34.4514114,8.66640821 33.9831345,10.4637877 32.796215,11.5734338 C32.7513964,11.6167069 32.7034869,11.6553436 32.6540319,11.6924349 C31.6958417,12.3940774 29.9618264,11.5286152 30.2152832,10.1624214 C30.3281024,9.550416 30.9385623,9.17332177 31.0637452,8.56749825 C31.317202,7.33885107 29.6140961,6.05147609 28.4812679,7.1286674 C27.8847172,7.69585421 27.847626,8.73440881 28.4596314,9.35414154 C28.4596314,9.35414154 28.9155445,9.84869135 28.9062716,10.4684241 C28.8846351,11.7434353 27.0903466,12.5254422 26.0193371,11.2767039 C25.6468793,10.8439728 25.3733314,10.3401502 25.1971481,9.80078184 L4.7629681,9.80078184 C4.3843284,9.78687263 4.2823275,9.74050858 4.09068945,9.64778049 C3.20359073,9.21968581 2.93467927,7.83494635 3.70895882,7.11630365 C3.99177949,6.85357407 4.37351012,6.71757287 4.7629681,6.70366366 L25.2126028,6.70366366 L25.2126028,6.70366366 Z" id="path-1"></path>
  </defs>
  <g id="Icons/export/product/family_of_events" stroke="none" stroke-width="1" fill="none" fill-rule="evenodd">
    <mask id="mask-2" fill="white">
      <use xlink:href="#path-1"></use>
    </mask>
    <use id="Mask" fill="#27BCBC" xlink:href="#path-1"></use>
  </g>
</svg>
