<?xml version="1.0" encoding="UTF-8"?>
<svg preserveAspectRatio="xMidYMid slice" xmlns="http://www.w3.org/2000/svg" xmlns:xlink="http://www.w3.org/1999/xlink" width="34px" height="34px" viewBox="0 0 40 40" version="1.1">
  <title>Icons/product/family of events</title>
  <g id="Icons/product/family-of-events" stroke="none" stroke-width="1" fill="none" fill-rule="evenodd">
    <path d="M35.7045455,37.25 L23.3409091,37.25 C23.0596364,37.2422727 22.9808182,37.216 22.8309091,37.1634545 C22.2853636,36.9733636 21.8711818,36.4571818 21.8047273,35.8776364 C21.797,35.8003636 21.797,35.7818182 21.7954545,35.7045455 L21.7954545,23.3409091 C21.8031818,23.0596364 21.8294545,22.9808182 21.882,22.8309091 C22.0720909,22.2853636 22.5882727,21.8711818 23.1678182,21.8047273 C23.2450909,21.797 23.2636364,21.797 23.3409091,21.7954545 L35.7045455,21.7954545 C35.7339091,21.797 35.7617273,21.797 35.7910909,21.7985455 C36.0723636,21.8217273 36.1496364,21.8526364 36.2964545,21.9129091 C36.8018182,22.1230909 37.1789091,22.6176364 37.2407273,23.1678182 C37.2484545,23.2450909 37.2484545,23.2636364 37.25,23.3409091 L37.25,35.7045455 C37.2422727,35.9858182 37.216,36.0646364 37.1634545,36.2145455 C36.9733636,36.7600909 36.4571818,37.1742727 35.8776364,37.2407273 C35.8003636,37.2484545 35.7818182,37.2484545 35.7045455,37.25 L35.7045455,37.25 Z M17.1590909,37.25 L4.79545455,37.25 C4.51418182,37.2422727 4.43536364,37.216 4.28545455,37.1634545 C3.73990909,36.9733636 3.32572727,36.4571818 3.25927273,35.8776364 C3.25154545,35.8003636 3.25154545,35.7818182 3.25,35.7045455 L3.25,23.3409091 C3.25772727,23.0596364 3.284,22.9808182 3.33654545,22.8309091 C3.52663636,22.2853636 4.04281818,21.8711818 4.62236364,21.8047273 C4.69963636,21.797 4.71818182,21.797 4.79545455,21.7954545 L17.1590909,21.7954545 C17.1884545,21.797 17.2162727,21.797 17.2456364,21.7985455 C17.5269091,21.8217273 17.6041818,21.8526364 17.751,21.9129091 C18.2563636,22.1230909 18.6334545,22.6176364 18.6952727,23.1678182 C18.703,23.2450909 18.703,23.2636364 18.7045455,23.3409091 L18.7045455,35.7045455 C18.6968182,35.9858182 18.6705455,36.0646364 18.618,36.2145455 C18.4279091,36.7600909 17.9117273,37.1742727 17.3321818,37.2407273 C17.2549091,37.2484545 17.2363636,37.2484545 17.1590909,37.25 Z M34.1590909,24.8863636 L24.8863636,24.8863636 L24.8863636,34.1590909 L34.1590909,34.1590909 L34.1590909,24.8863636 Z M15.6136364,24.8863636 L6.34090909,24.8863636 L6.34090909,34.1590909 L15.6136364,34.1590909 L15.6136364,24.8863636 Z M17.1590909,18.7045455 L4.79545455,18.7045455 C4.51418182,18.6968182 4.43536364,18.6705455 4.28545455,18.618 C3.73990909,18.4279091 3.32572727,17.9117273 3.25927273,17.3321818 C3.25154545,17.2549091 3.25154545,17.2363636 3.25,17.1590909 L3.25,4.79545455 C3.25772727,4.51418182 3.284,4.43536364 3.33654545,4.28545455 C3.52663636,3.73990909 4.04281818,3.32572727 4.62236364,3.25927273 C4.69963636,3.25154545 4.71818182,3.25154545 4.79545455,3.25 L17.1590909,3.25 C17.1884545,3.25154545 17.2162727,3.25154545 17.2456364,3.25309091 C17.5995455,3.28245455 17.7123636,3.335 17.9070909,3.44318182 C18.8019091,3.93772727 18.9672727,5.40745455 18.0539091,6.05654545 C17.7942727,6.24045455 17.4759091,6.33163636 17.1590909,6.34090909 L6.34090909,6.34090909 L6.34090909,15.6136364 L15.6136364,15.6136364 L15.6136364,10.9772727 C15.6136364,10.9772727 15.9443636,9.49827273 17.0725455,9.43490909 C17.9055455,9.387 18.6798182,10.1025455 18.7045455,10.9772727 L18.7045455,17.1590909 C18.6968182,17.4403636 18.6705455,17.5191818 18.618,17.6690909 C18.4279091,18.2146364 17.9117273,18.6288182 17.3321818,18.6952727 C17.2549091,18.703 17.2363636,18.703 17.1590909,18.7045455 Z M35.7045455,18.7045455 L23.3409091,18.7045455 C23.0596364,18.6968182 22.9808182,18.6705455 22.8309091,18.618 C22.2853636,18.4279091 21.8711818,17.9117273 21.8047273,17.3321818 C21.797,17.2549091 21.797,17.2363636 21.7954545,17.1590909 L21.7954545,4.79545455 C21.8031818,4.51418182 21.8294545,4.43536364 21.882,4.28545455 C22.0720909,3.73990909 22.5882727,3.32572727 23.1678182,3.25927273 C23.2450909,3.25154545 23.2636364,3.25154545 23.3409091,3.25 L35.7045455,3.25 C35.7339091,3.25154545 35.7617273,3.25154545 35.7910909,3.25309091 C36.0723636,3.27627273 36.1496364,3.30718182 36.2964545,3.36745455 C36.8018182,3.57763636 37.1789091,4.07218182 37.2407273,4.62236364 C37.2484545,4.69963636 37.2484545,4.71818182 37.25,4.79545455 L37.25,17.1590909 C37.2422727,17.4403636 37.216,17.5191818 37.1634545,17.6690909 C36.9733636,18.2146364 36.4571818,18.6288182 35.8776364,18.6952727 C35.8003636,18.703 35.7818182,18.703 35.7045455,18.7045455 L35.7045455,18.7045455 Z M34.1590909,6.34090909 L24.8863636,6.34090909 L24.8863636,15.6136364 L34.1590909,15.6136364 L34.1590909,6.34090909 Z" id="event_families_icon" fill="#27BCBC"></path>
  </g>
</svg>
