<?xml version="1.0" standalone="no"?>
<!DOCTYPE svg PUBLIC "-//W3C//DTD SVG 20010904//EN"
 "http://www.w3.org/TR/2001/REC-SVG-20010904/DTD/svg10.dtd">
<svg version="1.0" xmlns="http://www.w3.org/2000/svg"
 width="546.000000pt" height="546.000000pt" viewBox="0 0 546.000000 546.000000"
 preserveAspectRatio="xMidYMid meet">
<metadata>
Created by potrace 1.14, written by Peter Selinger 2001-2017
</metadata>
<g transform="translate(0.000000,546.000000) scale(0.100000,-0.100000)"
fill="#000000" stroke="none">
<path d="M3956 5283 c-1 -1 -17 -4 -36 -7 -82 -11 -198 -42 -217 -58 -7 -6
-13 -8 -13 -4 0 10 -132 -63 -157 -87 -13 -11 -23 -17 -23 -13 0 17 -170 -163
-203 -216 -41 -64 -108 -204 -108 -225 0 -2 -5 -17 -10 -35 -5 -18 -12 -53
-14 -78 -9 -76 -15 -112 -21 -121 -3 -5 -2 -9 3 -9 4 0 8 -19 9 -42 1 -62 10
-144 17 -155 6 -9 14 -41 24 -95 3 -15 9 -25 14 -22 5 3 9 -3 9 -14 0 -18 26
-73 66 -138 45 -73 154 -191 207 -222 15 -9 27 -20 27 -24 0 -4 6 -8 13 -8 7
0 23 -9 35 -20 12 -12 22 -18 22 -14 0 4 8 0 18 -8 27 -24 133 -62 240 -88 57
-13 272 -17 292 -5 6 4 28 8 48 10 58 5 204 61 245 94 9 8 17 10 17 5 0 -5 4
-4 8 1 4 6 30 26 57 45 78 54 215 199 215 228 0 6 5 12 10 12 6 0 10 6 10 13
0 7 8 22 18 33 9 11 18 26 20 34 2 8 10 29 17 45 32 70 48 130 61 230 3 28 8
53 11 58 2 4 0 7 -6 7 -7 0 -7 8 -1 26 7 16 7 23 0 19 -7 -4 -7 2 -1 18 6 14
7 27 5 30 -3 3 -7 20 -9 38 -5 39 -12 83 -20 119 -6 29 -42 128 -56 150 -4 8
-19 36 -32 62 -13 26 -27 45 -30 41 -4 -3 -7 0 -7 8 0 23 -99 135 -166 189
-102 83 -283 168 -372 175 -20 2 -37 4 -37 6 0 5 -194 17 -199 12z m154 -468
c100 -19 227 -118 269 -210 7 -16 17 -38 22 -48 17 -32 30 -185 18 -193 -5 -3
-9 -18 -9 -33 0 -15 -3 -31 -7 -35 -5 -4 -8 -11 -8 -14 -1 -4 -6 -17 -13 -29
-7 -13 -10 -23 -7 -23 8 0 -12 -24 -71 -85 -55 -57 -133 -100 -205 -113 -60
-11 -110 -8 -204 12 -34 7 -135 74 -167 111 -26 29 -76 117 -80 140 -1 11 -6
22 -10 26 -16 11 -12 209 4 209 5 0 8 6 6 13 -5 27 44 111 95 162 56 55 144
103 198 107 17 1 32 5 34 8 4 7 86 4 135 -5z"/>
<path d="M2195 3561 c-2 -1 -21 -4 -42 -6 -139 -10 -341 -62 -486 -124 -26
-11 -48 -20 -50 -20 -11 4 -272 -155 -297 -181 -3 -3 -21 -16 -40 -30 -70 -49
-180 -155 -255 -245 -28 -33 -53 -62 -56 -65 -33 -30 -167 -263 -214 -375 -7
-16 -18 -41 -23 -55 -12 -28 -42 -117 -47 -140 -2 -8 -10 -42 -19 -75 -14 -58
-18 -79 -36 -195 -8 -57 -6 -386 4 -430 2 -14 7 -41 11 -60 3 -19 10 -56 16
-81 6 -26 11 -53 12 -60 2 -8 5 -18 9 -24 3 -5 9 -26 13 -45 17 -80 152 -379
185 -410 3 -3 22 -30 42 -61 20 -30 44 -61 52 -68 9 -8 16 -18 16 -23 0 -27
301 -318 328 -318 4 0 20 -11 35 -25 15 -14 27 -23 27 -20 0 3 9 -3 21 -14 28
-26 295 -162 303 -154 3 4 6 1 6 -6 0 -7 4 -10 10 -6 5 3 17 1 27 -4 49 -27
267 -86 282 -76 5 3 12 2 15 -3 2 -4 20 -9 38 -10 19 -1 45 -5 58 -8 61 -14
392 -6 485 13 17 3 39 7 50 8 11 2 20 4 20 5 0 1 7 3 15 5 8 1 42 10 75 19 33
9 67 18 75 20 74 18 302 127 398 191 30 19 57 35 62 35 5 0 10 3 12 8 2 4 23
23 48 42 118 92 261 235 320 323 14 20 28 37 33 37 4 0 7 7 7 15 0 8 5 15 10
15 6 0 10 6 10 14 0 8 4 16 9 18 17 6 140 242 166 318 1 3 6 16 12 30 5 14 18
52 28 85 9 33 19 67 22 75 3 8 7 22 8 30 5 33 16 86 20 100 19 64 27 436 11
530 -13 78 -35 184 -46 220 -6 19 -13 44 -16 55 -7 28 -10 38 -17 58 -10 24
-16 46 -17 52 0 3 -7 19 -15 35 -8 16 -16 32 -16 35 -1 27 -172 316 -190 323
-5 2 -9 8 -9 14 0 5 -6 15 -12 23 -7 7 -29 32 -48 55 -128 156 -313 308 -495
405 -49 26 -94 51 -100 55 -13 8 -151 61 -168 64 -6 1 -18 5 -24 9 -7 5 -21
10 -30 12 -10 1 -47 11 -83 20 -36 9 -74 18 -85 20 -11 1 -35 6 -53 9 -18 4
-58 8 -90 11 -31 2 -59 5 -62 6 -10 3 -262 4 -265 0z m295 -925 c51 -10 100
-25 145 -45 22 -10 55 -24 73 -32 17 -8 32 -17 32 -20 0 -4 14 -12 30 -19 17
-7 30 -16 30 -21 0 -5 6 -9 13 -9 6 -1 35 -23 62 -50 28 -28 53 -50 58 -50 4
0 7 -5 7 -10 0 -10 7 -20 36 -53 15 -17 80 -120 83 -132 5 -14 16 -44 34 -87
9 -21 14 -38 12 -38 -3 0 0 -12 6 -27 32 -84 30 -257 -5 -409 -22 -101 -126
-275 -205 -346 -22 -21 -41 -42 -41 -48 0 -5 -6 -10 -12 -10 -7 -1 -29 -14
-48 -30 -19 -17 -40 -30 -47 -30 -7 0 -13 -3 -13 -7 0 -5 -19 -16 -43 -27 -23
-10 -53 -24 -67 -31 -14 -7 -41 -16 -60 -20 -19 -4 -39 -10 -45 -13 -5 -3 -19
-7 -30 -9 -164 -23 -281 -15 -400 24 -27 10 -52 17 -56 18 -14 1 -140 70 -158
86 -11 11 -23 19 -25 19 -18 0 -126 111 -174 178 -68 94 -125 235 -139 342 -9
69 -10 181 -2 220 4 19 10 49 12 65 8 50 30 120 42 127 5 4 7 8 2 8 -7 0 50
121 62 130 4 3 15 19 26 35 28 45 103 122 165 170 57 44 170 110 170 99 0 -4
6 -2 13 3 17 14 114 45 149 48 16 2 31 5 34 7 7 7 233 2 274 -6z"/>
</g>
</svg>
